<?xml version="1.0" encoding="UTF-8"?>
<svg version="1.1" xmlns="http://www.w3.org/2000/svg" width="75" height="66">
<path d="M0 0 C0.76441406 -0.00322266 1.52882812 -0.00644531 2.31640625 -0.00976562 C11.54042207 0.07636695 19.02255328 2.22468853 26.125 8.3125 C30.23401925 12.86072558 31.69950153 17.39911593 32.27734375 23.4296875 C31.79843476 32.4921191 28.80548879 40.0269286 24.875 48.125 C24.40964844 49.13498047 23.94429687 50.14496094 23.46484375 51.18554688 C20.77277967 56.80328389 18.64614112 61.20854139 13.125 64.3125 C6.27121691 65.53849815 -1.16772646 63.69431491 -7.9375 62.5625 C-8.97455078 62.40523437 -10.01160156 62.24796875 -11.08007812 62.0859375 C-22.33404398 60.23049608 -29.06611276 56.61363544 -35.875 47.3125 C-38.05485929 42.86195394 -38.73598061 38.21916369 -37.875 33.3125 C-35.84886974 28.02604846 -32.57760225 24.9572967 -28.0625 21.6875 C-22.98088684 17.90460521 -20.42488423 13.76244743 -17.73901367 8.14794922 C-16.23386579 5.13431147 -14.959901 3.37264852 -12.1953125 1.4140625 C-8.00408582 0.02356141 -4.38269698 -0.09145862 0 0 Z " fill="#F05A26" transform="translate(39.875,0.6875)"/>
<path d="M0 0 C0.76441406 -0.00322266 1.52882812 -0.00644531 2.31640625 -0.00976562 C7.54613677 0.03906887 12.09798832 0.87539302 17.125 2.3125 C17.125 2.6425 17.125 2.9725 17.125 3.3125 C16.34785645 3.29678955 15.57071289 3.2810791 14.77001953 3.26489258 C11.2634198 3.20269649 7.75693587 3.16355793 4.25 3.125 C3.02667969 3.09986328 1.80335937 3.07472656 0.54296875 3.04882812 C-0.62363281 3.03916016 -1.79023437 3.02949219 -2.9921875 3.01953125 C-4.07097168 3.0038208 -5.14975586 2.98811035 -6.26123047 2.97192383 C-7.55504639 3.14050903 -7.55504639 3.14050903 -8.875 3.3125 C-9.865 4.7975 -9.865 4.7975 -10.875 6.3125 C-10.215 6.6425 -9.555 6.9725 -8.875 7.3125 C-9.8340625 8.8903125 -9.8340625 8.8903125 -10.8125 10.5 C-12.50910051 13.45863317 -13.34028109 15.92594693 -13.875 19.3125 C-14.4009375 20.55 -14.4009375 20.55 -14.9375 21.8125 C-15.94164944 24.49023183 -16.03695541 26.47828026 -15.875 29.3125 C-15.215 29.3125 -14.555 29.3125 -13.875 29.3125 C-13.91625 28.405 -13.9575 27.4975 -14 26.5625 C-13.87706853 23.36628189 -13.37464451 22.02839164 -11.875 19.3125 C-9.89513918 19.42597619 -7.91608402 19.5535935 -5.9375 19.6875 C-4.83535156 19.75710937 -3.73320313 19.82671875 -2.59765625 19.8984375 C-1.69917969 20.03507812 -0.80070312 20.17171875 0.125 20.3125 C2.33889878 24.74029757 1.61728983 30.6196948 1.79248047 35.54321289 C1.87457577 37.73865507 1.97810577 39.93245079 2.08203125 42.12695312 C2.13414532 43.52078414 2.18496943 44.9146641 2.234375 46.30859375 C2.28561523 47.57888428 2.33685547 48.8491748 2.38964844 50.15795898 C2.125 53.3125 2.125 53.3125 0.86816406 55.25024414 C-0.875 56.3125 -0.875 56.3125 -4.875 56.3125 C-5.205 57.3025 -5.535 58.2925 -5.875 59.3125 C-3.235 59.6425 -0.595 59.9725 2.125 60.3125 C2.125 60.9725 2.125 61.6325 2.125 62.3125 C6.085 62.3125 10.045 62.3125 14.125 62.3125 C14.125 61.6525 14.125 60.9925 14.125 60.3125 C13.465 60.3125 12.805 60.3125 12.125 60.3125 C12.62 59.3225 12.62 59.3225 13.125 58.3125 C14.445 58.6425 15.765 58.9725 17.125 59.3125 C17.269375 58.714375 17.41375 58.11625 17.5625 57.5 C18.0122439 55.75099596 18.55392341 54.02572977 19.125 52.3125 C19.785 52.3125 20.445 52.3125 21.125 52.3125 C20.63 49.3425 20.63 49.3425 20.125 46.3125 C21.115 46.3125 22.105 46.3125 23.125 46.3125 C23.455 44.9925 23.785 43.6725 24.125 42.3125 C24.785 42.3125 25.445 42.3125 26.125 42.3125 C26.455 40.9925 26.785 39.6725 27.125 38.3125 C28.125 41.3125 28.125 41.3125 27.39990234 43.33374023 C26.1114499 45.81248992 24.82019874 48.28795805 23.5 50.75 C23.06042969 51.60916016 22.62085938 52.46832031 22.16796875 53.35351562 C17.58271594 62.01977791 17.58271594 62.01977791 13.125 64.3125 C6.18859455 65.37557466 -1.10104902 63.70546248 -7.9375 62.5625 C-8.97455078 62.40523437 -10.01160156 62.24796875 -11.08007812 62.0859375 C-22.33404398 60.23049608 -29.06611276 56.61363544 -35.875 47.3125 C-38.05485929 42.86195394 -38.73598061 38.21916369 -37.875 33.3125 C-35.84886974 28.02604846 -32.57760225 24.9572967 -28.0625 21.6875 C-22.98088684 17.90460521 -20.42488423 13.76244743 -17.73901367 8.14794922 C-16.23386579 5.13431147 -14.959901 3.37264852 -12.1953125 1.4140625 C-8.00408582 0.02356141 -4.38269698 -0.09145862 0 0 Z " fill="#F05925" transform="translate(39.875,0.6875)"/>
<path d="M0 0 C1.97986082 0.11347619 3.95891598 0.2410935 5.9375 0.375 C7.59072266 0.47941406 7.59072266 0.47941406 9.27734375 0.5859375 C10.17582031 0.72257812 11.07429688 0.85921875 12 1 C14.21389878 5.42779757 13.49228983 11.3071948 13.66748047 16.23071289 C13.74957577 18.42615507 13.85310577 20.61995079 13.95703125 22.81445312 C14.00914532 24.20828414 14.05996943 25.6021641 14.109375 26.99609375 C14.16061523 28.26638428 14.21185547 29.5366748 14.26464844 30.84545898 C14 34 14 34 12.74316406 35.93774414 C11 37 11 37 7 37 C6.67 37.99 6.34 38.98 6 40 C8.64 40.33 11.28 40.66 14 41 C14 41.66 14 42.32 14 43 C17.96 43 21.92 43 26 43 C26 42.34 26 41.68 26 41 C25.34 41 24.68 41 24 41 C24.495 40.01 24.495 40.01 25 39 C26.32 39.33 27.64 39.66 29 40 C29.144375 39.401875 29.28875 38.80375 29.4375 38.1875 C29.8872439 36.43849596 30.42892341 34.71322977 31 33 C31.66 33 32.32 33 33 33 C32.505 30.03 32.505 30.03 32 27 C32.99 27 33.98 27 35 27 C35.33 25.68 35.66 24.36 36 23 C36.66 23 37.32 23 38 23 C38.33 21.68 38.66 20.36 39 19 C40 22 40 22 39.27490234 24.02124023 C37.9864499 26.49998992 36.69519874 28.97545805 35.375 31.4375 C34.93542969 32.29666016 34.49585938 33.15582031 34.04296875 34.04101562 C29.45771594 42.70727791 29.45771594 42.70727791 25 45 C17.99128445 46.09426046 10.64607427 44.32247103 3.75 43.125 C2.6878125 42.95097656 1.625625 42.77695312 0.53125 42.59765625 C-4.24742214 41.78720306 -8.53090904 40.92960525 -13 39 C-9.10939581 37.5950596 -5.76907638 38.30486761 -1.75 38.9375 C-0.48671875 39.13214844 0.7765625 39.32679687 2.078125 39.52734375 C3.52445313 39.76130859 3.52445313 39.76130859 5 40 C4.2981424 37.1490712 4.2981424 37.1490712 3 36 C1.70054423 33.40108846 1.9776923 31.67333344 2.12109375 28.7734375 C2.16943359 27.7421875 2.21777344 26.7109375 2.26757812 25.6484375 C2.32365234 24.56820312 2.37972656 23.48796875 2.4375 22.375 C2.48970703 21.28703125 2.54191406 20.1990625 2.59570312 19.078125 C2.72562775 16.3851419 2.86060162 13.69250664 3 11 C2.360625 10.855625 1.72125 10.71125 1.0625 10.5625 C-1 10 -1 10 -2 9 C-1.30232558 2.60465116 -1.30232558 2.60465116 0 0 Z " fill="#E56E40" transform="translate(28,20)"/>
<path d="M0 0 C3.63 0 7.26 0 11 0 C11 9.57 11 19.14 11 29 C8.69 29 6.38 29 4 29 C4 21.41 4 13.82 4 6 C2.68 6 1.36 6 0 6 C0 4.02 0 2.04 0 0 Z " fill="#FEF5EF" transform="translate(29,23)"/>
<path d="M0 0 C0.76441406 -0.00322266 1.52882813 -0.00644531 2.31640625 -0.00976562 C7.54613677 0.03906887 12.09798832 0.87539302 17.125 2.3125 C17.125 2.6425 17.125 2.9725 17.125 3.3125 C16.34785645 3.29678955 15.57071289 3.2810791 14.77001953 3.26489258 C11.2634198 3.20269649 7.75693587 3.16355793 4.25 3.125 C3.02667969 3.09986328 1.80335937 3.07472656 0.54296875 3.04882812 C-0.62363281 3.03916016 -1.79023437 3.02949219 -2.9921875 3.01953125 C-4.07097168 3.0038208 -5.14975586 2.98811035 -6.26123047 2.97192383 C-7.55504639 3.14050903 -7.55504639 3.14050903 -8.875 3.3125 C-9.865 4.7975 -9.865 4.7975 -10.875 6.3125 C-10.215 6.6425 -9.555 6.9725 -8.875 7.3125 C-10.525 10.2825 -12.175 13.2525 -13.875 16.3125 C-15.195 15.6525 -16.515 14.9925 -17.875 14.3125 C-18.535 14.3125 -19.195 14.3125 -19.875 14.3125 C-16.94808268 4.6311581 -16.94808268 4.6311581 -12.3203125 1.6875 C-8.03527342 -0.02262898 -4.55995823 -0.09515773 0 0 Z " fill="#E9683A" transform="translate(39.875,0.6875)"/>
<path d="M0 0 C0.66 0.33 1.32 0.66 2 1 C0.53562275 5.85121899 -1.45418119 10.16595652 -3.8125 14.625 C-4.14314453 15.27984375 -4.47378906 15.9346875 -4.81445312 16.609375 C-6.96131227 20.68057813 -9.00152326 23.49704117 -13 26 C-19.41323823 27.42785304 -26.70068427 25.31873526 -33 24 C-33 23.67 -33 23.34 -33 23 C-26.07 23.33 -19.14 23.66 -12 24 C-12 23.34 -12 22.68 -12 22 C-12.66 22 -13.32 22 -14 22 C-13.67 21.34 -13.34 20.68 -13 20 C-11.68 20.33 -10.36 20.66 -9 21 C-8.7834375 20.1028125 -8.7834375 20.1028125 -8.5625 19.1875 C-8.1127561 17.43849596 -7.57107659 15.71322977 -7 14 C-6.34 14 -5.68 14 -5 14 C-5.33 12.02 -5.66 10.04 -6 8 C-5.01 8 -4.02 8 -3 8 C-2.67 6.68 -2.34 5.36 -2 4 C-1.34 4 -0.68 4 0 4 C0 2.68 0 1.36 0 0 Z " fill="#E18F72" transform="translate(66,39)"/>
<path d="M0 0 C0.33 0.66 0.66 1.32 1 2 C0.01 3.485 0.01 3.485 -1 5 C-0.34 5.66 0.32 6.32 1 7 C0.34 7 -0.32 7 -1 7 C-1 7.66 -1 8.32 -1 9 C-1.66 9 -2.32 9 -3 9 C-3.33 11.64 -3.66 14.28 -4 17 C-4.66 17 -5.32 17 -6 17 C-5.79375 17.763125 -5.5875 18.52625 -5.375 19.3125 C-5 22 -5 22 -7 25 C-8.85054063 20.37364843 -9.91601022 15.95015623 -9 11 C-6.95845764 6.4532981 -4.35701652 2.58193572 0 0 Z " fill="#EF5A2B" transform="translate(11,23)"/>
<path d="M0 0 C3.96 0.33 7.92 0.66 12 1 C12 1.66 12 2.32 12 3 C8.37 3 4.74 3 1 3 C1 4.98 1 6.96 1 9 C2.32 9 3.64 9 5 9 C5 16.59 5 24.18 5 32 C4.67 32 4.34 32 4 32 C3.67 25.07 3.34 18.14 3 11 C1.68 10.67 0.36 10.34 -1 10 C-1.33 9.67 -1.66 9.34 -2 9 C-1.30232558 2.60465116 -1.30232558 2.60465116 0 0 Z " fill="#D67360" transform="translate(28,20)"/>
<path d="M0 0 C0.99 0.495 0.99 0.495 2 1 C2.98390932 4.52538397 3.11801467 7.87537445 3.09765625 11.51953125 C3.09282227 13.0519043 3.09282227 13.0519043 3.08789062 14.61523438 C3.07951172 15.67033203 3.07113281 16.72542969 3.0625 17.8125 C3.05798828 18.88693359 3.05347656 19.96136719 3.04882812 21.06835938 C3.03707729 23.71229683 3.02064787 26.35611952 3 29 C2.01 29 1.02 29 0 29 C0 19.43 0 9.86 0 0 Z " fill="#E0621F" transform="translate(41,23)"/>
<path d="M0 0 C0.7734375 -0.00773438 1.546875 -0.01546875 2.34375 -0.0234375 C7.62413846 -0.00571808 12.17540572 0.79018521 17.25 2.25 C17.25 2.58 17.25 2.91 17.25 3.25 C16.47285645 3.24476318 15.69571289 3.23952637 14.89501953 3.23413086 C11.38835451 3.21339844 7.88170237 3.20035179 4.375 3.1875 C3.15167969 3.17912109 1.92835937 3.17074219 0.66796875 3.16210938 C-0.49863281 3.15888672 -1.66523437 3.15566406 -2.8671875 3.15234375 C-3.94597168 3.14710693 -5.02475586 3.14187012 -6.13623047 3.13647461 C-8.73232186 3.07116894 -8.73232186 3.07116894 -10.75 4.25 C-11.41 3.59 -12.07 2.93 -12.75 2.25 C-8.77364597 -0.44365918 -4.61227914 -0.04521842 0 0 Z " fill="#DA7857" transform="translate(39.75,0.75)"/>
<path d="M0 0 C3.29738082 3.29738082 2.95613927 7.48861046 3 12 C1.98591549 21.01408451 1.98591549 21.01408451 -1 24 C-0.67 16.08 -0.34 8.16 0 0 Z " fill="#DF8B6E" transform="translate(69,15)"/>
<path d="M0 0 C0.625 1.75 0.625 1.75 1 4 C0.33333333 5.33333333 -0.33333333 6.66666667 -1 8 C-1.18359802 10.93756834 -1.18502466 13.3524137 -0.375 16.1875 C-0.189375 17.0846875 -0.189375 17.0846875 0 18 C-0.66 18.99 -1.32 19.98 -2 21 C-3.85194135 16.37014663 -4.81853635 11.95880742 -4 7 C-2.88279842 4.43043636 -1.5648883 2.34733245 0 0 Z " fill="#E08B6B" transform="translate(6,27)"/>
<path d="M0 0 C0.66 0.33 1.32 0.66 2 1 C0.78065514 5.03321763 -0.55954927 8.54269479 -3 12 C-3.66 12 -4.32 12 -5 12 C-5.33 10.68 -5.66 9.36 -6 8 C-5.01 8 -4.02 8 -3 8 C-2.67 6.68 -2.34 5.36 -2 4 C-1.34 4 -0.68 4 0 4 C0 2.68 0 1.36 0 0 Z " fill="#DE7B55" transform="translate(66,39)"/>
<path d="M0 0 C0.12375 0.61875 0.2475 1.2375 0.375 1.875 C0.87197356 4.19120832 0.87197356 4.19120832 3 6 C-3.28571429 8.42857143 -3.28571429 8.42857143 -7 7 C-6.21625 6.401875 -5.4325 5.80375 -4.625 5.1875 C-1.85425677 3.08914751 -1.85425677 3.08914751 0 0 Z " fill="#E27955" transform="translate(19,15)"/>
<path d="M0 0 C2.12577907 0.0868276 4.25069581 0.1949951 6.375 0.3125 C7.55835938 0.37050781 8.74171875 0.42851563 9.9609375 0.48828125 C10.96382812 0.65714844 11.96671875 0.82601562 13 1 C13.66 1.99 14.32 2.98 15 4 C4.44191344 3.22095672 4.44191344 3.22095672 0 1 C0 0.67 0 0.34 0 0 Z " fill="#DC825E" transform="translate(15,58)"/>
<path d="M0 0 C0.79921875 0.00644531 1.5984375 0.01289063 2.421875 0.01953125 C3.246875 0.03628906 4.071875 0.05304687 4.921875 0.0703125 C5.76234375 0.07933594 6.6028125 0.08835938 7.46875 0.09765625 C9.53658104 0.12115433 11.60426495 0.15702342 13.671875 0.1953125 C13.671875 0.5253125 13.671875 0.8553125 13.671875 1.1953125 C12.47949219 1.24429687 11.28710938 1.29328125 10.05859375 1.34375 C8.49216432 1.41878854 6.92575921 1.4943359 5.359375 1.5703125 C4.57369141 1.60125 3.78800781 1.6321875 2.97851562 1.6640625 C1.8425293 1.72207031 1.8425293 1.72207031 0.68359375 1.78125 C-0.01290283 1.8126709 -0.70939941 1.8440918 -1.42700195 1.87646484 C-3.65345239 2.11649503 -3.65345239 2.11649503 -6.328125 4.1953125 C-6.988125 3.5353125 -7.648125 2.8753125 -8.328125 2.1953125 C-5.40988256 0.52856929 -3.35218121 -0.0478883 0 0 Z " fill="#E4A78C" transform="translate(35.328125,0.8046875)"/>
<path d="M0 0 C0.33 0.66 0.66 1.32 1 2 C0.01 3.485 0.01 3.485 -1 5 C-0.34 5.66 0.32 6.32 1 7 C0.34 7 -0.32 7 -1 7 C-1 7.66 -1 8.32 -1 9 C-1.99 8.67 -2.98 8.34 -4 8 C-4.25 5.6875 -4.25 5.6875 -4 3 C-2 1.1875 -2 1.1875 0 0 Z " fill="#E97048" transform="translate(11,23)"/>
<path d="M0 0 C2.24606427 1.77444972 2.95081002 2.58352485 3.29296875 5.48046875 C3.25816406 6.37378906 3.22335938 7.26710938 3.1875 8.1875 C3.16042969 9.08855469 3.13335937 9.98960938 3.10546875 10.91796875 C3.07066406 11.60503906 3.03585938 12.29210938 3 13 C2.01 13 1.02 13 0 13 C0.185625 11.96875 0.37125 10.9375 0.5625 9.875 C0.97307082 6.23851558 0.778309 3.54562991 0 0 Z " fill="#E47048" transform="translate(66,10)"/>
<path d="M0 0 C1.5625 1.75 1.5625 1.75 3 4 C2.6875 6.25 2.6875 6.25 2 8 C0.4375 6.8125 0.4375 6.8125 -1 5 C-0.6875 2.3125 -0.6875 2.3125 0 0 Z " fill="#DE7041" transform="translate(6,44)"/>
<path d="M0 0 C2.475 0.495 2.475 0.495 5 1 C5 1.99 5 2.98 5 4 C6.32 4.33 7.64 4.66 9 5 C7.68 5.33 6.36 5.66 5 6 C3.35 4.02 1.7 2.04 0 0 Z " fill="#D8775C" transform="translate(8,52)"/>
</svg>
