<svg id="Carpenter" xmlns="http://www.w3.org/2000/svg" viewBox="0 0 45.941 46.412"><defs><style>.cls-1{fill:#f7d04a;}.cls-2{fill:#2e2e2e;}.cls-3{fill:#ffe7c2;}.cls-4{fill:#d3a97a;}.cls-17,.cls-5{fill:none;}.cls-5{stroke:#2e2e2e;stroke-miterlimit:10;stroke-width:0.5px;}.cls-6{fill:#103358;}.cls-7{fill:#f8be94;}.cls-8{opacity:0.84;}.cls-9{fill:#e6a678;}.cls-10{fill:#e6d2b2;}.cls-11{fill:#fedb10;}.cls-12{fill:#eac00f;}.cls-13{fill:#3c5174;}.cls-14{fill:#f4c237;}.cls-15{fill:#a0a09c;}.cls-16{fill:#d8af3f;}.cls-18{fill:#ff634c;}.cls-19{fill:#d3d0d6;}.cls-20{fill:#e5e5e5;}.cls-21{fill:#7a838b;}.cls-22{fill:#f7c360;}.cls-23{fill:#f9ae42;}.cls-24{fill:#7a828a;}.cls-25{fill:#5d6972;}.cls-26{fill:#cdcdcd;}.cls-27{fill:#7a838a;}.cls-28{fill:#fefefe;}.cls-29{fill:#79828a;}</style></defs><path class="cls-1" d="M-150.9-146.687v-1.47a.616.616,0,0,1,.672-.537h3.591a.616.616,0,0,1,.672.537v1.47h-5.059" transform="translate(172.925 148.694)"/><path class="cls-2" d="M-160.09-122.645l1.918,1.539s1.254.266.835-.944l-1.959-1.742.687-.7a.775.775,0,0,0-.186-.8.775.775,0,0,0-.835-.163q-1.11,1.329-2.221,2.659a.862.862,0,0,0,.289.748.852.852,0,0,0,.768.141Z" transform="translate(172.925 148.694)"/><path class="cls-3" d="M-152.219-128.432a16.14,16.14,0,0,1-.167,2.287,16.291,16.291,0,0,1-.593,2.578,3.191,3.191,0,0,1-.662.967,3.225,3.225,0,0,1-.687.522,14.89,14.89,0,0,0,6.383,1.489A14.91,14.91,0,0,0-141.523-122a7.245,7.245,0,0,1-.884-.925,7.231,7.231,0,0,1-.873-1.395,12.709,12.709,0,0,1-.336-2.354,12.5,12.5,0,0,1,.021-1.541,6.863,6.863,0,0,1-4.322,1.438A6.868,6.868,0,0,1-152.219-128.432Z" transform="translate(172.925 148.694)"/><path class="cls-4" d="M-154.187-122.2a4.7,4.7,0,0,0,1.128-1.319,6.056,6.056,0,0,0,.631-2.161,21.717,21.717,0,0,0,.281-2.753l.486.327a7.693,7.693,0,0,1,.428,2.552,7.876,7.876,0,0,1-1.139,4.012,3.663,3.663,0,0,1-1.149-.285A3.584,3.584,0,0,1-154.187-122.2Z" transform="translate(172.925 148.694)"/><path class="cls-2" d="M-127.239-108.406h-41.554l.01-.1a11.833,11.833,0,0,1,1.437-4.593,11.852,11.852,0,0,1,2.746-3.327,13.484,13.484,0,0,1,2.291-1.9,15.5,15.5,0,0,1,2.984-1.468c.829-.335,1.769-.714,3.031-1.337.591-.292,1.176-.6,1.738-.914a4.648,4.648,0,0,0,1.4-1.53,10.091,10.091,0,0,0,.7-3.113c.075-.625.134-1.258.174-1.881l.183.011c-.041.628-.1,1.264-.175,1.892a8.6,8.6,0,0,1-.72,3.18,4.837,4.837,0,0,1-1.46,1.6c-.573.321-1.161.63-1.755.923-1.268.627-2.211,1.007-3.043,1.343a15.315,15.315,0,0,0-2.952,1.451,13.332,13.332,0,0,0-2.267,1.885,11.7,11.7,0,0,0-2.711,3.283,11.666,11.666,0,0,0-1.4,4.42h41.167a6.761,6.761,0,0,0-.856-3.315,19.032,19.032,0,0,0-4.428-5.326,19.015,19.015,0,0,0-3.149-2.12,14.272,14.272,0,0,0-2.876-1.122,7.137,7.137,0,0,1-2.243-1.083,7.194,7.194,0,0,1-2.289-2.76,11.023,11.023,0,0,1-.34-1.96,11.147,11.147,0,0,1,.028-2.13l.182.02a11.026,11.026,0,0,0-.028,2.095,10.957,10.957,0,0,0,.33,1.912,7.02,7.02,0,0,0,2.225,2.675,6.992,6.992,0,0,0,2.186,1.055,14.451,14.451,0,0,1,2.912,1.137,19.148,19.148,0,0,1,3.179,2.14,19.191,19.191,0,0,1,4.471,5.377,6.95,6.95,0,0,1,.88,3.405Z" transform="translate(172.925 148.694)"/><path class="cls-5" d="M-136.844-129.415" transform="translate(172.925 148.694)"/><path class="cls-6" d="M-141.4-122.14a15.854,15.854,0,0,1-6.672,1.3,15.847,15.847,0,0,1-6.076-1.38c-.339.175-.788.405-1.32.668-1.31.649-1.965.974-2.759,1.306-1.063.445-1.78.665-2.842,1.2a8.461,8.461,0,0,0-.784.447,8.538,8.538,0,0,0-1.276,1.008,17.121,17.121,0,0,0-1.306,1.12,13.712,13.712,0,0,0-2.786,3.449,11.765,11.765,0,0,0-1.366,4.429h41.351a8.6,8.6,0,0,0-.569-2.775,10.116,10.116,0,0,0-1.626-2.647,19.39,19.39,0,0,0-3.632-3.729,18.386,18.386,0,0,0-4.876-2.693,7.154,7.154,0,0,1-2.4-.915A7.134,7.134,0,0,1-141.4-122.14Z" transform="translate(172.925 148.694)"/><path d="M-127.622-112.981" transform="translate(172.925 148.694)"/><path class="cls-2" d="M-148.019-129.918a6,6,0,0,1-.915-.08l.027-.143a4.138,4.138,0,0,0,1.484,0l.054.137A2.089,2.089,0,0,1-148.019-129.918Z" transform="translate(172.925 148.694)"/><ellipse class="cls-4" cx="24.773" cy="18.972" rx="0.595" ry="0.105"/><path class="cls-3" d="M-154.292-138.329a11.556,11.556,0,0,0-.861,3.008,12.345,12.345,0,0,0,.477,5.308,9.394,9.394,0,0,0,2.054,3.861,8.476,8.476,0,0,0,1.887,1.528,5.657,5.657,0,0,0,2.86.787,5.753,5.753,0,0,0,3.6-1.311,6.884,6.884,0,0,0,1.868-2.182c.8-1.493.848-3,.921-5.284.031-1-.007-1.728-.017-1.907a20.159,20.159,0,0,0-.584-3.808l-3.269-1.557-3.769.445-2.635-.053-1.277.374Z" transform="translate(172.925 148.694)"/><path class="cls-4" d="M-150.827-138.955a10.017,10.017,0,0,0-2.182,2.667,10.563,10.563,0,0,0-.92,2.357c-.53,2.223.322,5.567,2.694,8.833v.067a9.834,9.834,0,0,1-2.981-3.373,9.443,9.443,0,0,1-.2-7.931,10.31,10.31,0,0,1,1.353-2.345l.82-.542.691-.127Z" transform="translate(172.925 148.694)"/><path class="cls-2" d="M-155.032-133.526c-2.1-2.862-2.277-5.879-.795-7.082a3.459,3.459,0,0,1,2.273-.667,3.98,3.98,0,0,1,1.306-2.53l.018-.016a3.755,3.755,0,0,1,2.541-.915,13.863,13.863,0,0,1,4.833.931,12.7,12.7,0,0,1,4.492,2.945,1.593,1.593,0,0,1,.454,1.005,11.484,11.484,0,0,1-.28,3.471,11.921,11.921,0,0,1-1.219,3.1l-.778-4.037a.4.4,0,0,0-.589-.245,4.4,4.4,0,0,1-1.246.458c-.838.169-1.693.078-4.649-.971-.582-.207-1.313-.474-2.156-.8a2.031,2.031,0,0,0-2.09.168c-.035.027-.063.053-.119.105a3.566,3.566,0,0,0-.826,1.243c-.378.806-.569,1.208-.622,1.36A11.744,11.744,0,0,0-155.032-133.526Z" transform="translate(172.925 148.694)"/><path class="cls-2" d="M-153.022-138.557a2.832,2.832,0,0,1,.6-.326,3.051,3.051,0,0,1,.757-.192l-.128-.078a1.024,1.024,0,0,0-.844.051A.8.8,0,0,0-153.022-138.557Z" transform="translate(172.925 148.694)"/><ellipse class="cls-2" cx="22.231" cy="15.056" rx="0.535" ry="0.484"/><ellipse class="cls-2" cx="27.421" cy="15.056" rx="0.535" ry="0.484"/><path class="cls-2" d="M-148.192-128.049a5.321,5.321,0,0,1-2-.389l.063-.127a5.172,5.172,0,0,0,1.935.376h.026a5.166,5.166,0,0,0,1.909-.376l.064.127a5.34,5.34,0,0,1-1.973.389Z" transform="translate(172.925 148.694)"/><path class="cls-2" d="M-153.022-134.9a3.924,3.924,0,0,1,1.521-.269,3.9,3.9,0,0,1,1.342.269.26.26,0,0,0,.092-.213.254.254,0,0,0-.092-.167,3.9,3.9,0,0,0-1.342-.27,3.9,3.9,0,0,0-1.521.27.233.233,0,0,0-.115.153A.223.223,0,0,0-153.022-134.9Z" transform="translate(172.925 148.694)"/><path class="cls-2" d="M-146.107-134.9a3.928,3.928,0,0,1,1.521-.269,3.911,3.911,0,0,1,1.343.269.26.26,0,0,0,.092-.213.259.259,0,0,0-.092-.167,3.907,3.907,0,0,0-1.343-.27,3.905,3.905,0,0,0-1.521.27.237.237,0,0,0-.115.153A.224.224,0,0,0-146.107-134.9Z" transform="translate(172.925 148.694)"/><path class="cls-2" d="M-147.916-123.969c-.135,0-.273-.005-.413-.014a6.492,6.492,0,0,1-4.231-2.012,7.732,7.732,0,0,1-1.282-1.77,10.219,10.219,0,0,1-1.089-2.773l-.324-3.85.471-4.4,1.846-.835h4.274l3.406.334,3.5.216.695,1.595v1.417l-.093,1.168-.112.925-.09.561-.092,3.085a7.055,7.055,0,0,1-.489,2.213A7.52,7.52,0,0,1-143.223-126,6.649,6.649,0,0,1-147.916-123.969Zm-6.723-14.731-.462,4.313.323,3.829a10.091,10.091,0,0,0,1.073,2.729,7.643,7.643,0,0,0,1.258,1.739,6.341,6.341,0,0,0,4.129,1.968,6.45,6.45,0,0,0,4.975-1.965,7.362,7.362,0,0,0,1.256-2.071,6.948,6.948,0,0,0,.481-2.172l.093-3.09.09-.567.111-.92.093-1.161v-1.4l-.649-1.475-3.4-.21-3.4-.334h-4.248Z" transform="translate(172.925 148.694)"/><path class="cls-7" d="M-155.664-132.417c-.017-.03,0-.062-.008-.093C-155.655-132.48-155.669-132.448-155.664-132.417Z" transform="translate(172.925 148.694)"/><path class="cls-7" d="M-155.64-132.145c-.018-.03,0-.062-.008-.093C-155.631-132.208-155.645-132.176-155.64-132.145Z" transform="translate(172.925 148.694)"/><path class="cls-7" d="M-155.656-132.331c-.017-.028,0-.057-.008-.086C-155.648-132.389-155.66-132.359-155.656-132.331Z" transform="translate(172.925 148.694)"/><path class="cls-7" d="M-155.648-132.238c-.017-.028,0-.057-.008-.086C-155.64-132.3-155.652-132.267-155.648-132.238Z" transform="translate(172.925 148.694)"/><path class="cls-7" d="M-155.632-132.06c-.017-.027,0-.057-.008-.085C-155.624-132.118-155.636-132.088-155.632-132.06Z" transform="translate(172.925 148.694)"/><path class="cls-7" d="M-155.617-131.874c-.016-.028,0-.057-.008-.086C-155.608-131.932-155.621-131.9-155.617-131.874Z" transform="translate(172.925 148.694)"/><path class="cls-7" d="M-155.68-132.587l.008,0v.079C-155.689-132.534-155.676-132.561-155.68-132.587Z" transform="translate(172.925 148.694)"/><path class="cls-3" d="M-155.124-133.739c0,.085.009.17.016.255.01.131.023.263.034.394.006.074.009.149.015.223.008.106.019.211.027.317,0,.038.005.076.008.113.008.116.018.231.027.346.005.074.014.148.015.223a.1.1,0,0,0,.007.045c-.044.018-.044.017-.04.071,0,.091.015.182.013.273a.545.545,0,0,1-.112.32.5.5,0,0,1-.3.195.5.5,0,0,1-.3-.021.7.7,0,0,1-.182-.114.5.5,0,0,1-.068-.077c-.061-.081-.121-.163-.182-.245l-.147-.2c-.058-.079-.118-.157-.176-.236s-.12-.165-.181-.246c-.048-.063-.094-.127-.142-.19a1.659,1.659,0,0,1-.248-.4,1.184,1.184,0,0,1-.081-.349,1.166,1.166,0,0,1,0-.213,1.265,1.265,0,0,1,.059-.263.925.925,0,0,1,.176-.314.978.978,0,0,1,.191-.178,1.053,1.053,0,0,1,.3-.144.981.981,0,0,1,.215-.039,1.466,1.466,0,0,1,.239-.007,1.012,1.012,0,0,1,.267.059,1.274,1.274,0,0,1,.266.146.807.807,0,0,1,.162.163.406.406,0,0,1,.064.084c.007.017.019.02.035.011A.032.032,0,0,1-155.124-133.739Z" transform="translate(172.925 148.694)"/><path class="cls-2" d="M-155.124-133.739l-.054.032a.655.655,0,0,0-.11-.152.828.828,0,0,0-.228-.189,1.054,1.054,0,0,0-.211-.1.853.853,0,0,0-.24-.043,1.471,1.471,0,0,0-.418.042.858.858,0,0,0-.226.094,1.027,1.027,0,0,0-.283.247.939.939,0,0,0-.137.232.951.951,0,0,0-.071.253c0,.032-.01.064-.013.1a1.1,1.1,0,0,0,.016.319,1.131,1.131,0,0,0,.116.324,2.032,2.032,0,0,0,.15.22c.044.061.092.119.134.181s.111.149.166.223l.167.226c.06.083.122.164.182.246.045.062.09.123.136.184a.957.957,0,0,0,.212.241.508.508,0,0,0,.34.1.566.566,0,0,0,.153-.034.516.516,0,0,0,.252-.214.593.593,0,0,0,.072-.184.755.755,0,0,0,0-.19c0-.045-.009-.091-.013-.136,0-.012,0-.024,0-.036-.005-.062-.005-.062.052-.067s.058-.007.062.05c.005.085.014.169.017.253a.667.667,0,0,1-.008.126.644.644,0,0,1-.094.256.589.589,0,0,1-.1.12.625.625,0,0,1-.319.16.635.635,0,0,1-.284-.014.611.611,0,0,1-.319-.211c-.079-.1-.149-.2-.223-.3l-.206-.28c-.074-.1-.147-.2-.22-.3-.035-.047-.066-.1-.1-.141-.057-.068-.106-.142-.158-.213a1.967,1.967,0,0,1-.136-.2,1.386,1.386,0,0,1-.109-.258,1.125,1.125,0,0,1-.035-.155c-.013-.073-.012-.146-.018-.22a.4.4,0,0,1,.006-.091,1.478,1.478,0,0,1,.058-.278,1.194,1.194,0,0,1,.146-.3,1.086,1.086,0,0,1,.217-.237,1.333,1.333,0,0,1,.289-.169.569.569,0,0,1,.106-.034,1.483,1.483,0,0,1,.24-.039,2.277,2.277,0,0,1,.286,0,.505.505,0,0,1,.094.019,1.189,1.189,0,0,1,.257.09,1.187,1.187,0,0,1,.293.214c.057.052.093.12.144.176.018.018.026.041-.011.051A.045.045,0,0,0-155.124-133.739Z" transform="translate(172.925 148.694)"/><g class="cls-8"><path class="cls-4" d="M-155.54-131.874a.077.077,0,0,1-.027.091c-.029.015-.009.04-.015.059-.024-.006-.015-.026-.016-.041,0-.058,0-.056-.061-.059a.531.531,0,0,1-.333-.126,1.246,1.246,0,0,1-.193-.235l-.14-.2c-.054-.073-.107-.148-.158-.223-.036-.054-.074-.106-.108-.162a.743.743,0,0,1-.069-.168.541.541,0,0,1-.023-.179.726.726,0,0,1,.052-.26.7.7,0,0,1,.234-.293.584.584,0,0,1,.183-.092.516.516,0,0,1,.134-.028c.007,0,.014,0,.021,0s.02,0,.024.011-.007.015-.013.019a.643.643,0,0,0-.106.109.758.758,0,0,0-.169.412.793.793,0,0,0,.012.223.7.7,0,0,0,.1.245c.08.124.167.244.246.37a.9.9,0,0,1,.056.081c.037.04.059.042.086.007a.04.04,0,0,0,0-.054c-.05-.084-.107-.163-.162-.242-.041-.059-.081-.12-.121-.179a.634.634,0,0,1-.116-.3.78.78,0,0,1,.017-.264.6.6,0,0,1,.118-.229.753.753,0,0,1,.176-.152.116.116,0,0,1,.122-.009.552.552,0,0,1,.293.335.419.419,0,0,1,.009.214.489.489,0,0,1-.1.208.312.312,0,0,0-.064.192c0,.043,0,.086,0,.128s0,.053.05.07l.007.008a.374.374,0,0,0,0,.075h0c.01.031,0,.063.007.093h0c.01.028,0,.058.007.086v.007c.01.028,0,.058.007.086h0c.01.03,0,.062.007.093h0c.01.028,0,.057.007.085a.307.307,0,0,1,.007.1C-155.537-131.932-155.55-131.9-155.54-131.874Z" transform="translate(172.925 148.694)"/></g><path class="cls-2" d="M-155.6-132.587c-.052,0-.054,0-.059-.054a1.02,1.02,0,0,1-.008-.183.293.293,0,0,1,.063-.16.49.49,0,0,0,.08-.131.439.439,0,0,0,.027-.224.527.527,0,0,0-.195-.329.514.514,0,0,0-.135-.077.054.054,0,0,0-.043,0,.609.609,0,0,0-.177.13.559.559,0,0,0-.106.144.561.561,0,0,0-.062.2c0,.031-.007.062-.008.094a.65.65,0,0,0,.117.378c.06.092.122.184.186.275.036.05.066.1.1.154a.123.123,0,0,1-.1.057c-.048-.069-.093-.14-.141-.209-.069-.1-.135-.2-.195-.3a.758.758,0,0,1-.057-.144.757.757,0,0,1-.025-.138.646.646,0,0,1,.007-.2.77.77,0,0,1,.1-.265.711.711,0,0,1,.171-.2.032.032,0,0,0,.014-.019.864.864,0,0,0-.124.019.681.681,0,0,0-.188.081.712.712,0,0,0-.171.153.579.579,0,0,0-.091.148.635.635,0,0,0-.052.21.852.852,0,0,0,0,.1.65.65,0,0,0,.066.262,1.756,1.756,0,0,0,.148.226c.041.06.083.12.127.177a1.569,1.569,0,0,0,.128.175.689.689,0,0,1,.055.082.854.854,0,0,0,.164.195.52.52,0,0,0,.265.113.364.364,0,0,0,.093.006c.027,0,.036.013.037.038s-.008.049.006.072a.136.136,0,0,1-.066.009.678.678,0,0,1-.4-.143.926.926,0,0,1-.182-.2c-.1-.145-.2-.289-.307-.43-.044-.059-.085-.12-.128-.181a.7.7,0,0,1-.087-.183.794.794,0,0,1-.032-.365.789.789,0,0,1,.19-.41.756.756,0,0,1,.274-.2.8.8,0,0,1,.28-.065.593.593,0,0,1,.331.078.645.645,0,0,1,.241.226.589.589,0,0,1,.09.253.513.513,0,0,1-.045.28c-.032.065-.078.12-.11.184a.206.206,0,0,0-.016.124,1,1,0,0,0,.011.123c.007.026,0,.037-.032.033-.007,0-.016,0-.021.006Z" transform="translate(172.925 148.694)"/><path class="cls-9" d="M-155.914-132.31a.325.325,0,0,0,.1-.057c.026.033,0,.055-.017.076s-.045.015-.065,0Z" transform="translate(172.925 148.694)"/><path class="cls-3" d="M-141.407-133.529c0,.085,0,.17,0,.255,0,.132-.013.264-.018.4,0,.074,0,.149-.006.223,0,.106-.01.212-.014.318l0,.113c0,.116-.009.231-.012.346,0,.075-.009.149-.007.223a.09.09,0,0,1,0,.046c.045.016.045.016.044.069,0,.092-.009.183,0,.274a.55.55,0,0,0,.126.316.5.5,0,0,0,.311.184.492.492,0,0,0,.3-.031.691.691,0,0,0,.177-.12.546.546,0,0,0,.065-.079c.058-.083.113-.168.171-.251.047-.068.093-.136.139-.2s.111-.161.166-.242.113-.168.171-.251c.045-.065.089-.131.133-.2a1.65,1.65,0,0,0,.232-.4,1.2,1.2,0,0,0,.066-.352,1.17,1.17,0,0,0-.011-.213,1.2,1.2,0,0,0-.07-.261.938.938,0,0,0-.189-.308,1.015,1.015,0,0,0-.2-.171,1.066,1.066,0,0,0-.3-.134,1.053,1.053,0,0,0-.217-.032,1.59,1.59,0,0,0-.239,0,1.023,1.023,0,0,0-.265.068,1.234,1.234,0,0,0-.259.155.775.775,0,0,0-.155.168.412.412,0,0,0-.061.087c-.006.016-.018.019-.034.011A.036.036,0,0,0-141.407-133.529Z" transform="translate(172.925 148.694)"/><path d="M-141.407-133.529l.055.03a.664.664,0,0,1,.1-.155.827.827,0,0,1,.221-.2,1,1,0,0,1,.206-.1.887.887,0,0,1,.239-.051,1.475,1.475,0,0,1,.419.028.856.856,0,0,1,.229.086,1.034,1.034,0,0,1,.294.237.965.965,0,0,1,.147.228.979.979,0,0,1,.08.249c.006.033.013.065.018.1a1.107,1.107,0,0,1,0,.32,1.131,1.131,0,0,1-.1.327,2.018,2.018,0,0,1-.141.225c-.042.063-.087.122-.127.186s-.1.152-.156.228-.1.155-.157.232-.116.168-.172.252c-.043.063-.085.126-.129.188a.917.917,0,0,1-.2.249.509.509,0,0,1-.335.106.531.531,0,0,1-.154-.028.522.522,0,0,1-.261-.205.568.568,0,0,1-.08-.182.705.705,0,0,1-.012-.189c0-.046,0-.092.007-.137,0-.012,0-.024,0-.036,0-.062,0-.062-.055-.065s-.058-.006-.059.052c0,.085-.007.169-.007.254a.655.655,0,0,0,.013.125.68.68,0,0,0,.1.253.561.561,0,0,0,.107.116.639.639,0,0,0,.326.15.647.647,0,0,0,.283-.025.606.606,0,0,0,.31-.221c.075-.1.141-.2.211-.305l.194-.286c.07-.1.139-.2.208-.3.033-.048.061-.1.1-.145.055-.07.1-.146.15-.219a1.85,1.85,0,0,0,.127-.205,1.374,1.374,0,0,0,.1-.261,1.3,1.3,0,0,0,.028-.156c.01-.073.006-.147.009-.22a.412.412,0,0,0-.01-.092,1.559,1.559,0,0,0-.069-.275,1.28,1.28,0,0,0-.159-.3,1.09,1.09,0,0,0-.227-.228,1.319,1.319,0,0,0-.295-.16.693.693,0,0,0-.108-.03,1.5,1.5,0,0,0-.242-.03,2.083,2.083,0,0,0-.285.006.484.484,0,0,0-.093.022,1.224,1.224,0,0,0-.254.1,1.231,1.231,0,0,0-.284.224c-.054.055-.088.123-.136.181-.017.019-.025.042.013.051C-141.418-133.538-141.413-133.532-141.407-133.529Z" transform="translate(172.925 148.694)"/><g class="cls-8"><path class="cls-4" d="M-140.915-131.679a.078.078,0,0,0,.031.09c.03.014.011.04.018.059.024-.007.014-.027.014-.042,0-.058,0-.056.058-.061a.526.526,0,0,0,.328-.137,1.256,1.256,0,0,0,.183-.241c.045-.067.088-.134.132-.2s.1-.151.148-.229c.034-.055.071-.108.1-.165a.806.806,0,0,0,.062-.17.545.545,0,0,0,.016-.18.725.725,0,0,0-.064-.258.7.7,0,0,0-.246-.285.562.562,0,0,0-.186-.085.517.517,0,0,0-.135-.024.149.149,0,0,0-.021,0c-.009,0-.021,0-.024.011s.007.015.014.019a.655.655,0,0,1,.111.106.763.763,0,0,1,.185.405.757.757,0,0,1,0,.223.7.7,0,0,1-.091.249c-.075.127-.156.25-.23.377a.74.74,0,0,0-.053.084c-.035.041-.057.043-.085.01a.041.041,0,0,1,0-.055c.047-.085.1-.166.152-.247.039-.06.076-.122.113-.183a.628.628,0,0,0,.1-.3.785.785,0,0,0-.028-.264.582.582,0,0,0-.128-.224.753.753,0,0,0-.181-.147.118.118,0,0,0-.123,0,.546.546,0,0,0-.279.344.423.423,0,0,0,0,.215.5.5,0,0,0,.111.2.319.319,0,0,1,.072.19c0,.043,0,.085,0,.128s0,.053-.047.072l-.007.007a.321.321,0,0,1,0,.076h0c-.008.031.006.062,0,.093h0c-.008.028.005.058,0,.086v.007c-.008.028,0,.058,0,.086h0c-.008.031.006.062,0,.093h0c-.008.028.006.058,0,.086a.305.305,0,0,0,0,.1C-140.92-131.737-140.906-131.707-140.915-131.679Z" transform="translate(172.925 148.694)"/></g><path d="M-140.888-132.393c.052,0,.054,0,.057-.057a.922.922,0,0,0,0-.182.3.3,0,0,0-.069-.159.479.479,0,0,1-.086-.128.446.446,0,0,1-.036-.223.52.52,0,0,1,.181-.334.5.5,0,0,1,.132-.083.054.054,0,0,1,.043,0,.625.625,0,0,1,.182.124.544.544,0,0,1,.112.14.591.591,0,0,1,.07.2c0,.031.01.062.012.093a.645.645,0,0,1-.1.382c-.057.095-.115.189-.175.281-.034.052-.062.107-.1.158a.126.126,0,0,0,.1.053c.046-.07.087-.143.133-.214.064-.1.126-.2.182-.308a.753.753,0,0,0,.051-.145.76.76,0,0,0,.019-.139.619.619,0,0,0-.015-.2.8.8,0,0,0-.109-.262.764.764,0,0,0-.179-.193.035.035,0,0,1-.015-.018,1.062,1.062,0,0,1,.125.014.733.733,0,0,1,.191.076.69.69,0,0,1,.177.146.6.6,0,0,1,.1.146.647.647,0,0,1,.06.208c0,.033.007.067.008.1a.642.642,0,0,1-.056.264,1.687,1.687,0,0,1-.138.23c-.039.062-.078.123-.12.182a1.746,1.746,0,0,1-.12.179.592.592,0,0,0-.052.084.863.863,0,0,1-.156.2.506.506,0,0,1-.26.122.363.363,0,0,1-.093.009c-.027,0-.035.014-.035.04s.01.048,0,.072a.15.15,0,0,0,.066.006.66.66,0,0,0,.392-.157.939.939,0,0,0,.174-.208c.094-.148.188-.3.288-.44.042-.061.081-.124.12-.185a.637.637,0,0,0,.08-.187.79.79,0,0,0,.017-.365.8.8,0,0,0-.207-.4.787.787,0,0,0-.282-.192.832.832,0,0,0-.283-.055.593.593,0,0,0-.327.09.635.635,0,0,0-.232.234.585.585,0,0,0-.079.255.515.515,0,0,0,.057.279c.034.064.083.117.118.179a.21.21,0,0,1,.02.125.845.845,0,0,1-.006.123c-.006.026.007.036.033.031.007,0,.017,0,.022.006Z" transform="translate(172.925 148.694)"/><path class="cls-9" d="M-140.559-132.128a.315.315,0,0,1-.1-.053c-.024.034,0,.055.021.076s.044.013.064-.006Z" transform="translate(172.925 148.694)"/><path class="cls-2" d="M-147.985-129.978a2.166,2.166,0,0,1-.707-.126l-.047-.019v-1.513h.154v1.419a1.631,1.631,0,0,0,1.13-.013l.075.123A1.364,1.364,0,0,1-147.985-129.978Z" transform="translate(172.925 148.694)"/><path class="cls-10" d="M-138.931-138.634a.024.024,0,0,1,.03,0v.295C-138.979-138.427-138.924-138.534-138.931-138.634Z" transform="translate(172.925 148.694)"/><path class="cls-4" d="M-153.986-137.1a40.089,40.089,0,0,1,5.453-.214,40.061,40.061,0,0,1,6.486.722,2.49,2.49,0,0,0-.574-1.369c-.96-1.075-2.4-.373-6.029-.449-2.613-.055-4.131-.466-4.955.533A1.954,1.954,0,0,0-153.986-137.1Z" transform="translate(172.925 148.694)"/><polygon class="cls-1" points="19.483 2.862 21.627 1.89 21.59 2.077 22.273 10.718 20.468 10.716 19.483 2.862"/><path class="cls-1" d="M-153.442-145.832q.163,1.084.328,2.168.255,1.681.51,3.364.158,1.035.319,2.069c.036.223.013.253-.238.253l-4.526,0a23.383,23.383,0,0,1,.045-2.726,6.8,6.8,0,0,1,3.393-5.021C-153.556-145.764-153.5-145.8-153.442-145.832Z" transform="translate(172.925 148.694)"/><path class="cls-1" d="M-139.745-137.982q-2.29,0-4.583.006c-.179,0-.211-.076-.191-.206q.195-1.254.387-2.506.256-1.683.51-3.365l.27-1.779a6.942,6.942,0,0,1,3.55,4.978,4.556,4.556,0,0,1,.055.7C-139.74-139.43-139.745-138.706-139.745-137.982Z" transform="translate(172.925 148.694)"/><polygon class="cls-1" points="29.573 2.862 27.347 1.868 26.581 10.718 28.785 10.718 29.573 2.862"/><polygon class="cls-1" points="21.991 10.718 21.156 2.104 21.627 1.89 21.59 2.077 22.273 10.718 21.991 10.718"/><polygon class="cls-1" points="26.891 10.718 27.808 2.064 27.29 1.849 27.331 2.037 26.581 10.718 26.891 10.718"/><path class="cls-11" d="M-136.343-144.438" transform="translate(172.925 148.694)"/><path class="cls-12" d="M-150.872-140.765a21.075,21.075,0,0,1,2.235-.135,20.962,20.962,0,0,1,2.534.135l-.033.386h-4.736Z" transform="translate(172.925 148.694)"/><path class="cls-13" d="M-154.443-122.054" transform="translate(172.925 148.694)"/><path class="cls-1" d="M-151.3-146.768s5.259-.294,5.72-.029-.558,8.722-.558,8.722h-4.736S-151.472-146.759-151.3-146.768Z" transform="translate(172.925 148.694)"/><path class="cls-14" d="M-138.98-137.672a39.508,39.508,0,0,1-9.455,1.243,39.283,39.283,0,0,1-9.317-1.051l.174-1.093,18.5-.155Z" transform="translate(172.925 148.694)"/><path class="cls-15" d="M-161.856-118.6v10.189h-6.937a12.384,12.384,0,0,1,2.435-6.47A12.709,12.709,0,0,1-161.856-118.6Z" transform="translate(172.925 148.694)"/><path class="cls-15" d="M-133.766-118.49v10.083h6.61a9.528,9.528,0,0,0-.568-2.83A12.288,12.288,0,0,0-130.1-114.9,27.759,27.759,0,0,0-133.766-118.49Z" transform="translate(172.925 148.694)"/><path class="cls-2" d="M-151.883-133.67a.116.116,0,0,1-.083-.034.12.12,0,0,1,0-.168,1.709,1.709,0,0,1,2.16-.243.117.117,0,0,1,.028.165.117.117,0,0,1-.165.028,1.45,1.45,0,0,0-1.853.217A.122.122,0,0,1-151.883-133.67Z" transform="translate(172.925 148.694)"/><path class="cls-2" d="M-144.218-133.67a.12.12,0,0,1-.085-.035,1.45,1.45,0,0,0-1.853-.217.119.119,0,0,1-.166-.028.118.118,0,0,1,.028-.165,1.708,1.708,0,0,1,2.16.243.12.12,0,0,1,0,.168A.116.116,0,0,1-144.218-133.67Z" transform="translate(172.925 148.694)"/><path class="cls-15" d="M-154.116-122.145l-.212,6.073a23.816,23.816,0,0,1,5.92-.961,23.819,23.819,0,0,1,6.931.785q-.024-2.932-.046-5.867a16.3,16.3,0,0,1-6.264,1.182A16.44,16.44,0,0,1-154.116-122.145Z" transform="translate(172.925 148.694)"/><path class="cls-16" d="M-147.557-138.637a5.071,5.071,0,0,0,2.838-2.508,5.2,5.2,0,0,0-.908-5.542,7.007,7.007,0,0,1,4.577,2.6,7.054,7.054,0,0,1,1.335,5.365Z" transform="translate(172.925 148.694)"/><rect class="cls-17" x="-139.092" y="-124.729" width="8.179" height="5.504" rx="1.582" transform="translate(212.519 77.903) rotate(-25.759)"/><path class="cls-2" d="M-137.417-127.623l-1.327,1.36s-.3.945.664.713l1.487-1.377.486.581a.6.6,0,0,0,.63-.083.6.6,0,0,0,.188-.63l-1.879-1.907a.665.665,0,0,0-.6.166.66.66,0,0,0-.166.58Z" transform="translate(172.925 148.694)"/><polygon class="cls-18" points="6.69 36.03 0.289 37.687 2.472 46.123 5.95 45.223 8.337 42.394 6.69 36.03"/><path class="cls-2" d="M-170.623-102.282l-2.3-8.9,6.861-1.775,1.737,6.713-2.515,2.98Zm-1.724-8.555,2.065,7.977,3.175-.822,2.259-2.677-1.557-6.016Z" transform="translate(172.925 148.694)"/><path class="cls-19" d="M-144.478-118.294l-21.757,5.63,1.647,6.364,2.326.544a.666.666,0,0,0,.662-.222l1.278-1.537a.9.9,0,0,1,.769-.321l1.636.14a.763.763,0,0,0,.671-.3l1.032-1.351a.925.925,0,0,1,.772-.364l1.564.062a.7.7,0,0,0,.561-.242l1.325-1.518a1,1,0,0,1,1.014-.309l1.921.513a.619.619,0,0,0,.579-.141l1.4-1.272a.953.953,0,0,1,.687-.246l1.519.072a.662.662,0,0,0,.606-.333l.777-1.361Z" transform="translate(172.925 148.694)"/><path class="cls-2" d="M-164.782-106.1l-1.742-6.733,22.217-5.75,1.07,4.135-.825,1.445a.893.893,0,0,1-.824.452l-1.519-.072a.709.709,0,0,0-.515.185l-1.4,1.272a.859.859,0,0,1-.8.194l-1.921-.513a.768.768,0,0,0-.773.236l-1.325,1.518a.942.942,0,0,1-.75.324l-1.563-.063a.691.691,0,0,0-.574.271l-1.032,1.351a1,1,0,0,1-.881.39l-1.635-.141a.663.663,0,0,0-.566.237l-1.279,1.537a.9.9,0,0,1-.9.3Zm-1.164-6.393,1.552,6,2.186.511a.425.425,0,0,0,.425-.143l1.279-1.537a1.135,1.135,0,0,1,.971-.405l1.636.14a.525.525,0,0,0,.463-.2l1.032-1.351a1.162,1.162,0,0,1,.97-.457l1.563.062a.467.467,0,0,0,.373-.161l1.325-1.518a1.245,1.245,0,0,1,1.254-.382l1.921.513a.384.384,0,0,0,.359-.088l1.4-1.271a1.181,1.181,0,0,1,.857-.308l1.519.072a.423.423,0,0,0,.389-.213l.729-1.278-.9-3.488Z" transform="translate(172.925 148.694)"/><path class="cls-20" d="M-131.816-111.837h1.382c0,.2-.009.4,0,.6a.719.719,0,0,1-.353.686.466.466,0,0,1-.678,0,.724.724,0,0,1-.352-.687C-131.808-111.436-131.816-111.637-131.816-111.837Z" transform="translate(172.925 148.694)"/><path class="cls-21" d="M-131.465-110.55a.729.729,0,0,0,.678,0c0,.366.009.732,0,1.1a.337.337,0,0,1-.343.363.338.338,0,0,1-.342-.363C-131.473-109.819-131.466-110.185-131.465-110.55Z" transform="translate(172.925 148.694)"/><path class="cls-22" d="M-128.108-124.936a3.79,3.79,0,0,1,.518.24,1.332,1.332,0,0,1,.6,1.109c.012.939.01,1.878,0,2.817a1.349,1.349,0,0,1-1.074,1.3c-.095-.034-.14-.119-.193-.2-.094-.136-.183-.275-.278-.41a.717.717,0,0,0-.623-.322c-.4,0-.79,0-1.185,0a.643.643,0,0,0-.718.72q-.006,1.787,0,3.573a.834.834,0,0,1-.2.616.481.481,0,0,1-.406.2.6.6,0,0,1-.115-.4c-.041-.449-.069-.9-.128-1.346a.634.634,0,0,0-.632-.611,1.093,1.093,0,0,1-.845-.446.305.305,0,0,1-.083-.236c.126-.091.173.045.243.093a.637.637,0,0,0,.762,0,.62.62,0,0,0,.2-.751.607.607,0,0,0-.533-.38.646.646,0,0,0-.6.312c-.037.051-.026.2-.166.119a2.686,2.686,0,0,1-.031-.7c-.01-.512-.216-.734-.724-.759a2.151,2.151,0,0,1-2.036-2.127c0-.7,0-1.4,0-2.105a.43.43,0,0,1,.061-.308Z" transform="translate(172.925 148.694)"/><path class="cls-23" d="M-136.3-124.936c0,.79.01,1.58,0,2.369a2.089,2.089,0,0,0,2.067,2.111.673.673,0,0,1,.693.7c0,.287,0,.574,0,.861a1.122,1.122,0,0,1,.087.54.928.928,0,0,0,.833.658c.524.048.692.193.758.714.07.557.114,1.118.17,1.677a.08.08,0,0,1-.048.058,4.208,4.208,0,0,1-1.087,0c-.023-.234-.051-.468-.066-.7a.7.7,0,0,0-.732-.708q-.4-.009-.795,0c-.118,0-.167-.028-.161-.155.008-.178,0-.357,0-.536a.393.393,0,0,1-.056-.267c0-.323,0-.645,0-.967a.685.685,0,0,0-.768-.772,1.041,1.041,0,0,1-.547-.055l-1.38-.014a.322.322,0,0,1-.066-.242c0-.488-.009-.975,0-1.462,0-.232-.008-.464,0-.7s-.007-.46,0-.691-.006-.46,0-.69-.006-.463,0-.695c-.011-.263,0-.526,0-.788a.336.336,0,0,1,.067-.241Z" transform="translate(172.925 148.694)"/><path class="cls-21" d="M-148.366-122.309c.084-.083.15-.192.282-.21.081-.012.067-.084.088-.131a.33.33,0,0,1,.293-.218.313.313,0,0,1,.331.188.234.234,0,0,0,.241.162c.128,0,.144-.074.185-.157a.336.336,0,0,1,.6-.019c.156.244.291.241.44-.008a.332.332,0,0,1,.582,0,.3.3,0,0,0,.337.181c.164-.009.329,0,.493,0a4.78,4.78,0,0,0,0,.677c-.064,0-.129.009-.193,0-.134-.009-.224,0-.29.163a.328.328,0,0,1-.589.006c-.158-.242-.29-.24-.442.01a.338.338,0,0,1-.6-.023c-.058-.1-.109-.172-.243-.159-.086.009-.141.017-.169.114a.311.311,0,0,1-.3.232.311.311,0,0,1-.327-.2.209.209,0,0,0-.249-.144.465.465,0,0,1-.476-.215Z" transform="translate(172.925 148.694)"/><path class="cls-21" d="M-138.368-124.584c.309-.138.651-.185.95-.352h.086l-.007,1.035a2.507,2.507,0,0,1-.955.2.105.105,0,0,1-.117-.1A1.552,1.552,0,0,1-138.368-124.584Z" transform="translate(172.925 148.694)"/><path class="cls-24" d="M-131.687-115.311a.671.671,0,0,0,.561-.706c0-1.219,0-2.438,0-3.657a.7.7,0,0,1,.781-.783c.4,0,.8,0,1.206,0a.715.715,0,0,1,.64.326c.149.219.29.443.434.665a.616.616,0,0,1-.294.044.607.607,0,0,0-.62.672c.054.77.126,1.539.2,2.308.063.713.133,1.424.2,2.136.043.477.082.954.123,1.431a.377.377,0,0,1-.285.065c-1.123,0-2.247,0-3.37,0a.676.676,0,0,1-.74-.458.978.978,0,0,0,.144-.813c.442.073,1.12-.212,1.008-.857-.02-.116-.073-.239.017-.351Z" transform="translate(172.925 148.694)"/><path class="cls-25" d="M-138.368-124.584c0,.227,0,.455,0,.682,0,.107,0,.171.149.139.29-.063.586-.094.879-.138v.688a.307.307,0,0,1-.224.108c-.183.031-.365.064-.548.091-.167.024-.2.127-.192.274s.122.152.23.153c.164,0,.328,0,.492,0a.316.316,0,0,1,.241.062v.687c-.1.087-.217.057-.329.061-.128,0-.258,0-.386,0-.084.005-.215-.038-.222.1s.016.283.184.326.352.062.528.094a.31.31,0,0,1,.226.107l0,1.715-2.065-.683a.322.322,0,0,1-.07-.242c0-.265-.007-.53,0-.8-.013-.951,0-1.9,0-2.854a.329.329,0,0,1,.069-.241Z" transform="translate(172.925 148.694)"/><path class="cls-25" d="M-132.857-113.27a.47.47,0,0,1,.09.088.66.66,0,0,0,.6.305q1.851,0,3.7,0a1.336,1.336,0,0,1,.011.531.68.68,0,0,1-.649.5c-.444,0-.889,0-1.334.008a.282.282,0,0,1-.179.058q-.513.01-1.024,0a.282.282,0,0,1-.179-.058l-1.44-.007a.6.6,0,0,1-.625-.478.588.588,0,0,1,.448-.684A1.314,1.314,0,0,0-132.857-113.27Z" transform="translate(172.925 148.694)"/><path class="cls-26" d="M-139.408-121.148l.01,1.034-2.078,0a.351.351,0,0,1-.061-.243c0-.378-.007-.756,0-1.133-.01-.82,0-1.64,0-2.46a.407.407,0,0,1,.062-.286l1.039,0a.371.371,0,0,1,.064.285c0,.544,0,1.087,0,1.631a1.012,1.012,0,0,0,.812,1.107A.335.335,0,0,1-139.408-121.148Z" transform="translate(172.925 148.694)"/><path class="cls-25" d="M-141.476-121.49v1.373c-.65-.214-1.3-.43-1.951-.64-.1-.031-.114-.086-.113-.174,0-.186,0-.372-.006-.558a.282.282,0,0,1-.058-.179q-.01-.511,0-1.023a.282.282,0,0,1,.058-.179c0-.192.008-.383.006-.575a.134.134,0,0,1,.106-.156c.31-.094.619-.2.928-.294a.3.3,0,0,1,.06.242c0,.222,0,.444,0,.666a1.444,1.444,0,0,0,.791,1.354C-141.587-121.6-141.507-121.573-141.476-121.49Z" transform="translate(172.925 148.694)"/><path class="cls-27" d="M-135.953-119.417c.222,0,.445-.011.667,0a.7.7,0,0,1,.71.711c.008.451,0,.9,0,1.354-.229,0-.459,0-.688,0a.681.681,0,0,1-.683-.684C-135.958-118.5-135.953-118.959-135.953-119.417Z" transform="translate(172.925 148.694)"/><path class="cls-25" d="M-131.688-115.291c.015.154.04.309.043.464a.67.67,0,0,1-.509.719,1.333,1.333,0,0,0-.34.114c-.147.1-.183.031-.219-.089l-.109-1.171a2.991,2.991,0,0,1,.732-.034C-131.956-115.3-131.822-115.291-131.688-115.291Z" transform="translate(172.925 148.694)"/><path class="cls-20" d="M-143.546-122.87v1.381c-.107,0-.214,0-.322,0a.7.7,0,0,1-.622-.351.733.733,0,0,1,0-.677C-144.271-122.893-143.909-122.882-143.546-122.87Z" transform="translate(172.925 148.694)"/><path class="cls-27" d="M-133.448-118.36a1.045,1.045,0,0,1-.087-.54c.206-.432.508-.6.872-.495a.692.692,0,0,1,.5.6.7.7,0,0,1-.392.681.679.679,0,0,1-.773-.128Z" transform="translate(172.925 148.694)"/><path class="cls-27" d="M-129.057-123.213c-.215,0-.43,0-.645,0-.24,0-.385-.133-.388-.339a.341.341,0,0,1,.378-.348q.655-.006,1.312,0a.34.34,0,0,1,.377.349c0,.206-.148.334-.389.338C-128.627-123.21-128.842-123.213-129.057-123.213Z" transform="translate(172.925 148.694)"/><path class="cls-27" d="M-129.053-122.18c-.222,0-.444,0-.667,0a.339.339,0,0,1-.37-.334.339.339,0,0,1,.374-.352q.656-.006,1.312,0a.341.341,0,0,1,.381.345.344.344,0,0,1-.385.342C-128.623-122.177-128.838-122.18-129.053-122.18Z" transform="translate(172.925 148.694)"/><path class="cls-27" d="M-129.037-121.835c.215,0,.43,0,.645,0a.34.34,0,0,1,.369.336.342.342,0,0,1-.376.351q-.656.006-1.311,0a.341.341,0,0,1-.38-.347c0-.206.147-.336.386-.34C-129.482-121.838-129.259-121.835-129.037-121.835Z" transform="translate(172.925 148.694)"/><path class="cls-28" d="M-130.6-123.9c-.172,0-.344,0-.515,0a.337.337,0,0,1-.349-.334.336.336,0,0,1,.352-.351c.337-.007.674-.006,1.01,0a.336.336,0,0,1,.359.344.344.344,0,0,1-.363.343h-.494Z" transform="translate(172.925 148.694)"/><path class="cls-29" d="M-137.339-122.523c-.279,0-.559-.006-.838,0-.133,0-.193-.027-.193-.176,0-.341-.008-.337.339-.389.232-.034.462-.084.693-.126Z" transform="translate(172.925 148.694)"/><path class="cls-29" d="M-137.338-121.146c-.239-.043-.476-.09-.715-.128a.444.444,0,0,1-.309-.494c.03-.086.1-.066.162-.066.287,0,.574,0,.861,0Z" transform="translate(172.925 148.694)"/><path class="cls-20" d="M-139.408-121.148a1.046,1.046,0,0,1-1.027-1.04q0-1.029,0-2.056l1.038,0Z" transform="translate(172.925 148.694)"/><path class="cls-27" d="M-141.476-121.49a1.529,1.529,0,0,1-1.031-1.544c.016-.286,0-.574,0-.861l1.029-.344Z" transform="translate(172.925 148.694)"/></svg>