<svg id="eKN1dMaeyOn1" xmlns="http://www.w3.org/2000/svg" xmlns:xlink="http://www.w3.org/1999/xlink" viewBox="0 0 455 455" shape-rendering="geometricPrecision" text-rendering="geometricPrecision"><defs><filter id="eKN1dMaeyOn2-filter" x="-150%" width="400%" y="-150%" height="400%"><feColorMatrix id="eKN1dMaeyOn2-filter-hue-rotate-0" type="hueRotate" values="-360" result="result"/></filter></defs><g style="isolation:isolate" paint-order="fill markers stroke" filter="url(#eKN1dMaeyOn2-filter)"><path d="M246.4,204.35v-.665c-.136.223-.324.446-.442.665h.442Z" clip-rule="evenodd" fill-rule="evenodd"/><path d="M0,0v455h455v-455L0,0ZM141.522,378.002h-67.506v-203.096h67.506v203.096ZM107.769,147.186h-.446C84.678,147.186,70,131.585,70,112.085c0-19.928,15.107-35.087,38.211-35.087c23.109,0,37.31,15.159,37.752,35.087c0,19.5-14.643,35.101-38.194,35.101ZM385,378.002h-67.524v-108.657c0-27.291-9.756-45.92-34.195-45.92-18.664,0-29.755,12.543-34.641,24.693-1.776,4.34-2.24,10.373-2.24,16.459v113.426h-67.537c0,0,.905-184.043,0-203.096h67.537v28.779c8.973-13.807,24.986-33.547,60.856-33.547c44.437,0,77.744,29.02,77.744,91.398v116.465Z" clip-rule="evenodd" fill="#454445" fill-rule="evenodd"/></g></svg>
