<?xml version="1.0" encoding="utf-8"?>
<!-- Generator: Adobe Illustrator 25.2.0, SVG Export Plug-In . SVG Version: 6.00 Build 0)  -->
<svg version="1.1" id="Plumber" xmlns="http://www.w3.org/2000/svg" xmlns:xlink="http://www.w3.org/1999/xlink" x="0px" y="0px"
	 viewBox="0 0 48 41.5" style="enable-background:new 0 0 48 41.5;" xml:space="preserve">
<style type="text/css">
	.st0{fill:#FFE7C2;}
	.st1{fill:#D3A97A;}
	.st2{fill:#2E2E2E;}
	.st3{fill:#FF745E;}
	.st4{fill:#F8BE94;}
	.st5{opacity:0.84;}
	.st6{fill:#E6A678;}
	.st7{fill:#F4493B;}
	.st8{fill:#FEDB10;}
	.st9{fill:#EAC00F;}
	.st10{fill:#3C5174;}
	.st11{fill:#CECECC;}
	.st12{fill:none;stroke:#2E2E2E;stroke-width:0.5;stroke-miterlimit:10;}
	.st13{fill:#D8C300;}
	.st14{fill:#FCEE21;}
	.st15{fill:#FF0000;}
	.st16{fill:#505051;}
	.st17{fill:#FEA4AC;}
	.st18{fill:#3D3D3F;}
	.st19{fill:#DB0B0B;}
	.st20{fill:#CBCFD1;}
	.st21{fill:#EFEFEF;}
	.st22{fill:#3E3F49;}
	.st23{fill:#42434D;}
	.st24{fill:#FEFEFE;}
</style>
<path class="st0" d="M17.7,19.8c0,0.8-0.1,1.6-0.2,2.4c-0.1,0.9-0.3,1.9-0.6,2.8c-0.2,0.4-0.4,0.7-0.7,1c-0.2,0.2-0.5,0.4-0.7,0.6
	c2.1,1,4.5,1.6,6.8,1.6c2.4,0,4.7-0.5,6.9-1.5c-0.3-0.3-0.7-0.6-0.9-1c-0.4-0.5-0.7-1-0.9-1.5c-0.2-0.8-0.3-1.7-0.4-2.5
	c0-0.5,0-1.1,0-1.6c-1.3,1-3,1.6-4.6,1.5C20.7,21.5,19,20.9,17.7,19.8z"/>
<path class="st1" d="M15.6,26.5c0.5-0.4,0.9-0.9,1.2-1.4c0.4-0.7,0.6-1.5,0.7-2.3c0.2-1,0.3-2,0.3-2.9l0.5,0.3
	c0.3,0.9,0.5,1.8,0.5,2.7c0,1.5-0.4,3-1.2,4.3c-0.4,0-0.8-0.1-1.2-0.3C16.1,26.7,15.9,26.6,15.6,26.5z"/>
<path class="st2" d="M44.5,41.2H0l0-0.1c0.2-1.7,0.7-3.4,1.5-4.9c0.8-1.4,1.8-2.6,2.9-3.6c0.7-0.8,1.6-1.5,2.5-2
	c1-0.6,2.1-1.2,3.2-1.6c0.9-0.4,1.9-0.8,3.2-1.4c0.6-0.3,1.3-0.6,1.9-1c0.6-0.4,1.1-1,1.5-1.6c0.4-1.1,0.7-2.2,0.7-3.3
	c0.1-0.7,0.1-1.3,0.2-2l0.2,0c0,0.7-0.1,1.4-0.2,2c0,1.2-0.3,2.3-0.8,3.4c-0.4,0.7-0.9,1.3-1.6,1.7c-0.6,0.3-1.2,0.7-1.9,1
	c-1.4,0.7-2.4,1.1-3.3,1.4c-1.1,0.4-2.2,0.9-3.2,1.6c-0.9,0.6-1.7,1.3-2.4,2c-1.2,1-2.2,2.2-2.9,3.5c-0.8,1.5-1.3,3.1-1.5,4.7h44.1
	c0-1.2-0.3-2.5-0.9-3.5c-1.2-2.2-2.8-4.1-4.7-5.7c-1-0.9-2.2-1.6-3.4-2.3c-1-0.5-2-0.9-3.1-1.2c-0.9-0.2-1.7-0.6-2.4-1.2
	c-1.1-0.8-1.9-1.8-2.4-3c-0.2-0.7-0.3-1.4-0.4-2.1c-0.1-0.8-0.1-1.5,0-2.3l0.2,0c-0.1,0.7-0.1,1.5,0,2.2c0.1,0.7,0.2,1.4,0.4,2
	c0.5,1.1,1.4,2.1,2.4,2.9c0.7,0.5,1.5,0.9,2.3,1.1c1.1,0.3,2.1,0.7,3.1,1.2c1.2,0.6,2.3,1.4,3.4,2.3c1.9,1.6,3.6,3.6,4.8,5.8
	c0.6,1.1,0.9,2.4,0.9,3.6L44.5,41.2z"/>
<path class="st3" d="M29.3,26.5c-2.3,1-4.7,1.4-7.1,1.4c-2.2-0.1-4.5-0.6-6.5-1.5c-0.4,0.2-0.8,0.4-1.4,0.7c-1.4,0.7-2.1,1-3,1.4
	c-1.1,0.5-1.9,0.7-3,1.3C8,30,7.7,30.1,7.4,30.3c-0.5,0.3-0.9,0.7-1.4,1.1c-0.5,0.4-1,0.8-1.4,1.2c-1.2,1.1-2.2,2.3-3,3.7
	c-0.8,1.5-1.3,3.1-1.5,4.7h44.3c0-1-0.2-2-0.6-3c-0.4-1-1-2-1.7-2.8c-1.1-1.5-2.4-2.9-3.9-4C36.7,30,34.9,29,33,28.3
	c-0.9-0.2-1.8-0.5-2.6-1C30.1,27.1,29.7,26.8,29.3,26.5z"/>
<path d="M44.1,36.3"/>
<path class="st2" d="M22.2,18.2c-0.3,0-0.7,0-1-0.1l0-0.2c0.5,0.1,1.1,0.1,1.6,0l0.1,0.1C22.7,18.2,22.5,18.2,22.2,18.2z"/>
<ellipse class="st1" cx="22.1" cy="18.4" rx="0.6" ry="0.1"/>
<path class="st0" d="M15.5,9.2c-0.5,1-0.8,2.1-0.9,3.2c-0.2,1.9-0.1,3.8,0.5,5.7c0.4,1.5,1.2,2.9,2.2,4.1c0.6,0.6,1.3,1.2,2,1.6
	c0.9,0.5,2,0.8,3.1,0.8c1.4,0,2.8-0.5,3.9-1.4c0.8-0.6,1.5-1.4,2-2.3c0.9-1.6,0.9-3.2,1-5.7c0-1.1,0-1.8,0-2
	c-0.1-1.4-0.3-2.7-0.6-4.1l-3.5-1.7l-4,0.5l-2.8-0.1l-1.4,0.4L15.5,9.2z"/>
<path class="st1" d="M19.2,8.5c-0.9,0.8-1.7,1.8-2.3,2.9c-0.4,0.8-0.8,1.6-1,2.5c-0.6,2.4,0.3,6,2.9,9.5v0.1
	c-1.3-0.9-2.4-2.2-3.2-3.6c-1.3-2.7-1.4-5.8-0.2-8.5c0.4-0.9,0.9-1.7,1.4-2.5l0.9-0.6l0.7-0.1L19.2,8.5z"/>
<path class="st2" d="M14.7,14.3c-2.2-3.1-2.4-6.3-0.9-7.6C14.6,6.2,15.4,6,16.3,6c0.1-1,0.6-2,1.4-2.7l0,0c0.8-0.7,1.7-1,2.7-1
	c1.8,0,3.5,0.4,5.2,1c1.8,0.7,3.4,1.8,4.8,3.2c0.3,0.3,0.5,0.7,0.5,1.1c0.1,1.2,0,2.5-0.3,3.7c-0.3,1.2-0.7,2.3-1.3,3.3l-0.8-4.3
	C28.4,10,28.2,9.9,28,10c0,0-0.1,0-0.1,0c-0.4,0.2-0.9,0.4-1.3,0.5c-0.9,0.2-1.8,0.1-5-1c-0.6-0.2-1.4-0.5-2.3-0.9
	c-0.7-0.4-1.6-0.3-2.2,0.2c0,0-0.1,0.1-0.1,0.1c-0.4,0.4-0.7,0.8-0.9,1.3c-0.4,0.9-0.6,1.3-0.7,1.5C15,12.5,14.8,13.4,14.7,14.3z"/>
<path class="st2" d="M16.9,8.9c0.2-0.1,0.4-0.3,0.6-0.3c0.3-0.1,0.5-0.2,0.8-0.2l-0.1-0.1c-0.3-0.1-0.6-0.1-0.9,0.1
	C17.1,8.5,16.9,8.7,16.9,8.9z"/>
<ellipse class="st2" cx="19.4" cy="14.2" rx="0.6" ry="0.5"/>
<ellipse class="st2" cx="24.9" cy="14.2" rx="0.6" ry="0.5"/>
<path class="st2" d="M22.1,20.2c-0.7,0-1.5-0.1-2.1-0.4l0.1-0.1c0.7,0.3,1.4,0.4,2.1,0.4h0c0.7,0,1.4-0.1,2-0.4l0.1,0.1
	C23.5,20,22.8,20.2,22.1,20.2L22.1,20.2z"/>
<path class="st2" d="M17.7,12.7c0.5-0.2,1.1-0.3,1.6-0.3c0.5,0,1,0.1,1.4,0.3c0.1-0.1,0.1-0.1,0.1-0.2c0-0.1,0-0.1-0.1-0.2
	c-0.5-0.2-0.9-0.3-1.4-0.3c-0.6,0-1.1,0.1-1.6,0.3c-0.1,0-0.1,0.1-0.1,0.2C17.5,12.6,17.6,12.7,17.7,12.7z"/>
<path class="st2" d="M23.9,12.6c0.5-0.2,1.1-0.3,1.6-0.3c0.5,0,1,0.1,1.4,0.3c0.1-0.1,0.1-0.1,0.1-0.2c0-0.1,0-0.1-0.1-0.2
	c-0.5-0.2-0.9-0.3-1.4-0.3c-0.6,0-1.1,0.1-1.6,0.3c-0.1,0-0.1,0.1-0.1,0.2C23.8,12.5,23.8,12.6,23.9,12.6z"/>
<path class="st2" d="M22.3,24.6c-0.1,0-0.3,0-0.4,0c-1.7-0.1-3.3-0.9-4.5-2.2c-0.5-0.6-1-1.2-1.4-1.9c-0.5-0.9-0.9-1.9-1.2-3
	l-0.3-4.1L15,8.7l2-0.9h4.6l3.6,0.4l3.7,0.2l0.7,1.7v1.5l-0.1,1.3l-0.1,1l-0.1,0.6l-0.1,3.3c0,0.8-0.2,1.6-0.5,2.4
	c-0.3,0.8-0.8,1.6-1.4,2.3C26,23.7,24.2,24.5,22.3,24.6z M15.1,8.8l-0.5,4.6l0.3,4.1c0.2,1,0.6,2,1.1,2.9c0.4,0.7,0.8,1.3,1.3,1.9
	c1.2,1.2,2.7,2,4.4,2.1c2,0.1,3.9-0.7,5.3-2.1c0.6-0.7,1-1.4,1.3-2.2c0.3-0.7,0.5-1.5,0.5-2.3l0.1-3.3l0.1-0.6l0.1-1l0.1-1.2v-1.5
	l-0.7-1.6l-3.6-0.2l-3.6-0.4H17L15.1,8.8z"/>
<path class="st4" d="M14.1,15.5c0,0,0-0.1,0-0.1C14.1,15.4,14,15.5,14.1,15.5z"/>
<path class="st4" d="M14.1,15.8c0,0,0-0.1,0-0.1C14.1,15.7,14.1,15.8,14.1,15.8z"/>
<path class="st4" d="M14.1,15.6C14,15.6,14.1,15.5,14.1,15.6C14.1,15.5,14.1,15.6,14.1,15.6z"/>
<path class="st4" d="M14.1,15.7C14.1,15.7,14.1,15.6,14.1,15.7C14.1,15.6,14.1,15.7,14.1,15.7z"/>
<path class="st4" d="M14.1,15.9C14.1,15.9,14.1,15.8,14.1,15.9C14.1,15.8,14.1,15.9,14.1,15.9z"/>
<path class="st4" d="M14.1,16.1C14.1,16.1,14.1,16,14.1,16.1C14.1,16,14.1,16.1,14.1,16.1z"/>
<path class="st4" d="M14,15.3L14,15.3L14,15.3C14,15.4,14,15.4,14,15.3z"/>
<path class="st0" d="M14.6,14.1c0,0.1,0,0.2,0,0.3c0,0.1,0,0.3,0,0.4c0,0.1,0,0.2,0,0.2c0,0.1,0,0.2,0,0.3c0,0,0,0.1,0,0.1
	c0,0.1,0,0.2,0,0.4c0,0.1,0,0.2,0,0.2c0,0,0,0,0,0c0,0,0,0,0,0.1c0,0.1,0,0.2,0,0.3c0,0.1,0,0.2-0.1,0.3c-0.1,0.1-0.2,0.2-0.3,0.2
	c-0.1,0-0.2,0-0.3,0c-0.1,0-0.1-0.1-0.2-0.1c0,0-0.1-0.1-0.1-0.1c-0.1-0.1-0.1-0.2-0.2-0.3c-0.1-0.1-0.1-0.1-0.2-0.2
	s-0.1-0.2-0.2-0.3s-0.1-0.2-0.2-0.3c-0.1-0.1-0.1-0.1-0.2-0.2c-0.1-0.1-0.2-0.3-0.3-0.4c0-0.1-0.1-0.2-0.1-0.4c0-0.1,0-0.2,0-0.2
	c0-0.1,0-0.2,0.1-0.3c0-0.1,0.1-0.2,0.2-0.3c0.1-0.1,0.1-0.1,0.2-0.2c0.1-0.1,0.2-0.1,0.3-0.2c0.1,0,0.2,0,0.2,0c0.1,0,0.2,0,0.3,0
	c0.1,0,0.2,0,0.3,0.1c0.1,0,0.2,0.1,0.3,0.2c0.1,0,0.1,0.1,0.2,0.2C14.5,14,14.5,14.1,14.6,14.1C14.6,14.1,14.6,14.1,14.6,14.1
	C14.6,14.1,14.6,14.1,14.6,14.1C14.6,14.1,14.6,14.1,14.6,14.1z"/>
<path class="st2" d="M14.6,14.1L14.6,14.1c-0.1,0-0.1-0.1-0.2-0.1c-0.1-0.1-0.2-0.1-0.2-0.2c-0.1,0-0.1-0.1-0.2-0.1
	c-0.1,0-0.2,0-0.3,0c-0.2,0-0.3,0-0.4,0c-0.1,0-0.2,0.1-0.2,0.1c-0.1,0.1-0.2,0.2-0.3,0.3c-0.1,0.1-0.1,0.2-0.1,0.2
	c0,0.1-0.1,0.2-0.1,0.3c0,0,0,0.1,0,0.1c0,0.1,0,0.2,0,0.3c0,0.1,0.1,0.2,0.1,0.3c0,0.1,0.1,0.2,0.2,0.2c0,0.1,0.1,0.1,0.1,0.2
	s0.1,0.2,0.2,0.2l0.2,0.2l0.2,0.3c0,0.1,0.1,0.1,0.1,0.2c0.1,0.1,0.1,0.2,0.2,0.3c0.1,0.1,0.2,0.1,0.4,0.1c0.1,0,0.1,0,0.2,0
	c0.1,0,0.2-0.1,0.3-0.2c0-0.1,0.1-0.1,0.1-0.2c0-0.1,0-0.1,0-0.2c0,0,0-0.1,0-0.1c0,0,0,0,0,0c0-0.1,0-0.1,0.1-0.1s0.1,0,0.1,0.1
	c0,0.1,0,0.2,0,0.3c0,0,0,0.1,0,0.1c0,0.1,0,0.2-0.1,0.3c0,0-0.1,0.1-0.1,0.1c-0.1,0.1-0.2,0.1-0.3,0.2c-0.1,0-0.2,0-0.3,0
	c-0.1,0-0.3-0.1-0.3-0.2c-0.1-0.1-0.2-0.2-0.2-0.3s-0.1-0.2-0.2-0.3S13.1,16.1,13,16c0-0.1-0.1-0.1-0.1-0.2
	c-0.1-0.1-0.1-0.2-0.2-0.2c-0.1-0.1-0.1-0.1-0.1-0.2c0-0.1-0.1-0.2-0.1-0.3c0-0.1,0-0.1,0-0.2c0-0.1,0-0.2,0-0.2c0,0,0-0.1,0-0.1
	c0-0.1,0-0.2,0.1-0.3c0-0.1,0.1-0.2,0.2-0.3c0.1-0.1,0.1-0.2,0.2-0.3c0.1-0.1,0.2-0.1,0.3-0.2c0,0,0.1,0,0.1,0c0.1,0,0.2,0,0.3,0
	c0.1,0,0.2,0,0.3,0c0,0,0.1,0,0.1,0c0.1,0,0.2,0.1,0.3,0.1c0.1,0.1,0.2,0.1,0.3,0.2C14.6,13.9,14.6,14,14.6,14.1
	C14.7,14.1,14.7,14.1,14.6,14.1C14.6,14.1,14.6,14.1,14.6,14.1z"/>
<g class="st5">
	<path class="st1" d="M14.2,16.1c0,0,0,0.1,0,0.1c0,0,0,0,0,0.1c0,0,0,0,0,0c0-0.1,0-0.1-0.1-0.1c-0.1,0-0.3-0.1-0.4-0.1
		c-0.1-0.1-0.1-0.2-0.2-0.3l-0.1-0.2c-0.1-0.1-0.1-0.2-0.2-0.2c0-0.1-0.1-0.1-0.1-0.2C13,15.1,13,15,13,15c0-0.1,0-0.1,0-0.2
		c0-0.1,0-0.2,0.1-0.3c0.1-0.1,0.1-0.2,0.2-0.3c0.1,0,0.1-0.1,0.2-0.1c0,0,0.1,0,0.1,0c0,0,0,0,0,0s0,0,0,0s0,0,0,0
		c0,0-0.1,0.1-0.1,0.1c-0.1,0.1-0.2,0.3-0.2,0.4c0,0.1,0,0.2,0,0.2c0,0.1,0.1,0.2,0.1,0.3c0.1,0.1,0.2,0.3,0.3,0.4
		c0,0,0,0.1,0.1,0.1c0,0,0.1,0,0.1,0c0,0,0,0,0-0.1c-0.1-0.1-0.1-0.2-0.2-0.3c0-0.1-0.1-0.1-0.1-0.2c-0.1-0.1-0.1-0.2-0.1-0.3
		c0-0.1,0-0.2,0-0.3c0-0.1,0.1-0.2,0.1-0.2c0.1-0.1,0.1-0.1,0.2-0.2c0,0,0.1,0,0.1,0c0.2,0.1,0.3,0.2,0.3,0.4c0,0.1,0,0.2,0,0.2
		c0,0.1-0.1,0.2-0.1,0.2c0,0.1-0.1,0.1-0.1,0.2c0,0,0,0.1,0,0.1s0,0.1,0.1,0.1l0,0c0,0,0,0.1,0,0.1l0,0c0,0,0,0.1,0,0.1l0,0
		c0,0,0,0.1,0,0.1v0c0,0,0,0.1,0,0.1l0,0c0,0,0,0.1,0,0.1l0,0c0,0,0,0.1,0,0.1C14.2,15.9,14.2,16,14.2,16.1
		C14.2,16,14.2,16.1,14.2,16.1z"/>
</g>
<path class="st2" d="M14.1,15.3C14.1,15.3,14.1,15.3,14.1,15.3c-0.1-0.1-0.1-0.2-0.1-0.3c0-0.1,0-0.1,0.1-0.2c0,0,0.1-0.1,0.1-0.1
	c0-0.1,0-0.2,0-0.2c0-0.1-0.1-0.3-0.2-0.4c0,0-0.1-0.1-0.1-0.1c0,0,0,0,0,0c-0.1,0-0.1,0.1-0.2,0.1c0,0-0.1,0.1-0.1,0.2
	c0,0.1-0.1,0.1-0.1,0.2c0,0,0,0.1,0,0.1c0,0.1,0,0.3,0.1,0.4c0.1,0.1,0.1,0.2,0.2,0.3c0,0.1,0.1,0.1,0.1,0.2c0,0-0.1,0.1-0.1,0.1
	c-0.1-0.1-0.1-0.1-0.2-0.2c-0.1-0.1-0.1-0.2-0.2-0.3c0,0,0-0.1-0.1-0.2c0,0,0-0.1,0-0.1c0-0.1,0-0.1,0-0.2c0-0.1,0.1-0.2,0.1-0.3
	c0-0.1,0.1-0.2,0.2-0.2c0,0,0,0,0,0c0,0-0.1,0-0.1,0c-0.1,0-0.1,0-0.2,0.1c-0.1,0-0.1,0.1-0.2,0.2c0,0-0.1,0.1-0.1,0.2
	c0,0.1,0,0.1-0.1,0.2c0,0,0,0.1,0,0.1c0,0.1,0,0.2,0.1,0.3c0,0.1,0.1,0.2,0.2,0.2c0,0.1,0.1,0.1,0.1,0.2c0,0.1,0.1,0.1,0.1,0.2
	c0,0,0,0.1,0.1,0.1c0,0.1,0.1,0.1,0.2,0.2c0.1,0.1,0.2,0.1,0.3,0.1c0,0,0.1,0,0.1,0c0,0,0,0,0,0s0,0.1,0,0.1c0,0,0,0-0.1,0
	c-0.2,0-0.3-0.1-0.4-0.2c-0.1-0.1-0.1-0.1-0.2-0.2c-0.1-0.2-0.2-0.3-0.3-0.5c0-0.1-0.1-0.1-0.1-0.2c0-0.1-0.1-0.1-0.1-0.2
	c0-0.1-0.1-0.3,0-0.4c0-0.2,0.1-0.3,0.2-0.4c0.1-0.1,0.2-0.2,0.3-0.2c0.1,0,0.2-0.1,0.3-0.1c0.1,0,0.2,0,0.4,0.1
	c0.1,0.1,0.2,0.1,0.3,0.2c0.1,0.1,0.1,0.2,0.1,0.3c0,0.1,0,0.2,0,0.3c0,0.1-0.1,0.1-0.1,0.2c0,0,0,0.1,0,0.1
	C14.2,15.2,14.2,15.2,14.1,15.3C14.2,15.3,14.2,15.3,14.1,15.3C14.2,15.3,14.1,15.3,14.1,15.3C14.1,15.3,14.1,15.3,14.1,15.3z"/>
<path class="st6" d="M13.8,15.6c0,0,0.1,0,0.1-0.1C13.9,15.6,13.9,15.6,13.8,15.6C13.9,15.7,13.8,15.7,13.8,15.6L13.8,15.6z"/>
<path class="st0" d="M29.3,14.3c0,0.1,0,0.2,0,0.3c0,0.1,0,0.3,0,0.4c0,0.1,0,0.2,0,0.2c0,0.1,0,0.2,0,0.3c0,0,0,0.1,0,0.1
	c0,0.1,0,0.2,0,0.4c0,0.1,0,0.2,0,0.2c0,0,0,0,0,0c0,0,0,0,0,0.1c0,0.1,0,0.2,0,0.3c0,0.1,0.1,0.2,0.1,0.3c0.1,0.1,0.2,0.2,0.3,0.2
	c0.1,0,0.2,0,0.3,0c0.1,0,0.1-0.1,0.2-0.1c0,0,0-0.1,0.1-0.1c0.1-0.1,0.1-0.2,0.2-0.3c0.1-0.1,0.1-0.1,0.1-0.2s0.1-0.2,0.2-0.3
	S31,16.1,31,16c0-0.1,0.1-0.1,0.1-0.2c0.1-0.1,0.2-0.3,0.2-0.4c0-0.1,0.1-0.2,0.1-0.4c0-0.1,0-0.2,0-0.2c0-0.1,0-0.2-0.1-0.3
	c0-0.1-0.1-0.2-0.2-0.3C31.1,14.1,31.1,14,31,14c-0.1-0.1-0.2-0.1-0.3-0.1c-0.1,0-0.2,0-0.2,0c-0.1,0-0.2,0-0.3,0
	c-0.1,0-0.2,0-0.3,0.1c-0.1,0-0.2,0.1-0.3,0.2c-0.1,0.1-0.1,0.1-0.2,0.2C29.4,14.3,29.4,14.3,29.3,14.3
	C29.4,14.3,29.4,14.3,29.3,14.3C29.4,14.3,29.4,14.3,29.3,14.3C29.3,14.3,29.3,14.3,29.3,14.3z"/>
<path d="M29.3,14.3L29.3,14.3c0.1,0,0.1-0.1,0.2-0.1c0.1-0.1,0.1-0.2,0.2-0.2c0.1,0,0.1-0.1,0.2-0.1c0.1,0,0.2,0,0.3-0.1
	c0.2,0,0.3,0,0.4,0c0.1,0,0.2,0.1,0.2,0.1c0.1,0.1,0.2,0.2,0.3,0.3c0.1,0.1,0.1,0.2,0.2,0.2c0,0.1,0.1,0.2,0.1,0.3c0,0,0,0.1,0,0.1
	c0,0.1,0,0.2,0,0.3c0,0.1-0.1,0.2-0.1,0.4c0,0.1-0.1,0.2-0.2,0.2c0,0.1-0.1,0.1-0.1,0.2C31,16,31,16.1,30.9,16.2l-0.2,0.2l-0.2,0.3
	l-0.1,0.2c-0.1,0.1-0.1,0.2-0.2,0.3c-0.1,0.1-0.2,0.1-0.4,0.1c-0.1,0-0.1,0-0.2,0c-0.1,0-0.2-0.1-0.3-0.2c0-0.1-0.1-0.1-0.1-0.2
	c0-0.1,0-0.1,0-0.2c0,0,0-0.1,0-0.1c0,0,0,0,0,0c0-0.1,0-0.1-0.1-0.1s-0.1,0-0.1,0.1c0,0.1,0,0.2,0,0.3c0,0,0,0.1,0,0.1
	c0,0.1,0.1,0.2,0.1,0.3c0,0,0.1,0.1,0.1,0.1c0.1,0.1,0.2,0.1,0.3,0.2c0.1,0,0.2,0,0.3,0c0.1,0,0.2-0.1,0.3-0.2
	c0.1-0.1,0.1-0.2,0.2-0.3s0.1-0.2,0.2-0.3s0.1-0.2,0.2-0.3c0-0.1,0.1-0.1,0.1-0.2c0.1-0.1,0.1-0.2,0.2-0.2c0.1-0.1,0.1-0.1,0.1-0.2
	c0-0.1,0.1-0.2,0.1-0.3c0-0.1,0-0.1,0-0.2c0-0.1,0-0.2,0-0.2c0,0,0-0.1,0-0.1c0-0.1,0-0.2-0.1-0.3c0-0.1-0.1-0.2-0.2-0.3
	c-0.1-0.1-0.2-0.2-0.2-0.2c-0.1-0.1-0.2-0.1-0.3-0.2c0,0-0.1,0-0.1,0c-0.1,0-0.2,0-0.3,0c-0.1,0-0.2,0-0.3,0c0,0-0.1,0-0.1,0
	c-0.1,0-0.2,0.1-0.3,0.1c-0.1,0.1-0.2,0.1-0.3,0.2C29.4,14.1,29.3,14.2,29.3,14.3C29.3,14.3,29.3,14.3,29.3,14.3
	C29.3,14.3,29.3,14.3,29.3,14.3z"/>
<g class="st5">
	<path class="st1" d="M29.8,16.3c0,0,0,0.1,0,0.1c0,0,0,0,0,0.1c0,0,0,0,0,0c0-0.1,0-0.1,0.1-0.1c0.1,0,0.3-0.1,0.4-0.1
		c0.1-0.1,0.1-0.2,0.2-0.3l0.1-0.2c0.1-0.1,0.1-0.2,0.2-0.2c0-0.1,0.1-0.1,0.1-0.2c0-0.1,0.1-0.1,0.1-0.2c0-0.1,0-0.1,0-0.2
		c0-0.1,0-0.2-0.1-0.3c-0.1-0.1-0.1-0.2-0.3-0.3c-0.1,0-0.1-0.1-0.2-0.1c0,0-0.1,0-0.1,0c0,0,0,0,0,0c0,0,0,0,0,0s0,0,0,0
		c0,0,0.1,0.1,0.1,0.1c0.1,0.1,0.2,0.3,0.2,0.4c0,0.1,0,0.2,0,0.2c0,0.1-0.1,0.2-0.1,0.3c-0.1,0.1-0.2,0.3-0.2,0.4
		c0,0,0,0.1-0.1,0.1c0,0-0.1,0-0.1,0c0,0,0,0,0-0.1c0-0.1,0.1-0.2,0.2-0.3c0-0.1,0.1-0.1,0.1-0.2c0.1-0.1,0.1-0.2,0.1-0.3
		c0-0.1,0-0.2,0-0.3c0-0.1-0.1-0.2-0.1-0.2c-0.1-0.1-0.1-0.1-0.2-0.2c0,0-0.1,0-0.1,0c-0.1,0.1-0.3,0.2-0.3,0.4c0,0.1,0,0.2,0,0.2
		c0,0.1,0.1,0.2,0.1,0.2c0,0.1,0.1,0.1,0.1,0.2c0,0,0,0.1,0,0.1s0,0.1-0.1,0.1l0,0c0,0,0,0.1,0,0.1l0,0c0,0,0,0.1,0,0.1l0,0
		c0,0,0,0.1,0,0.1v0c0,0,0,0.1,0,0.1l0,0c0,0,0,0.1,0,0.1l0,0c0,0,0,0.1,0,0.1C29.9,16.1,29.9,16.2,29.8,16.3
		C29.8,16.2,29.9,16.3,29.8,16.3z"/>
</g>
<path d="M29.9,15.5C29.9,15.5,29.9,15.5,29.9,15.5c0.1-0.1,0.1-0.2,0.1-0.3c0-0.1,0-0.1-0.1-0.2c0,0-0.1-0.1-0.1-0.1
	c0-0.1,0-0.2,0-0.2c0-0.1,0.1-0.3,0.2-0.4c0,0,0.1-0.1,0.1-0.1c0,0,0,0,0,0c0.1,0,0.1,0.1,0.2,0.1c0,0,0.1,0.1,0.1,0.1
	c0,0.1,0.1,0.1,0.1,0.2c0,0,0,0.1,0,0.1c0,0.1,0,0.3-0.1,0.4c-0.1,0.1-0.1,0.2-0.2,0.3c0,0.1-0.1,0.1-0.1,0.2c0,0,0.1,0.1,0.1,0.1
	c0-0.1,0.1-0.2,0.1-0.2c0.1-0.1,0.1-0.2,0.2-0.3c0,0,0-0.1,0.1-0.2c0,0,0-0.1,0-0.1c0-0.1,0-0.1,0-0.2c0-0.1-0.1-0.2-0.1-0.3
	c-0.1-0.1-0.1-0.1-0.2-0.2c0,0,0,0,0,0c0,0,0.1,0,0.1,0c0.1,0,0.1,0,0.2,0.1c0.1,0,0.1,0.1,0.2,0.2c0,0,0.1,0.1,0.1,0.2
	c0,0.1,0.1,0.1,0.1,0.2c0,0,0,0.1,0,0.1c0,0.1,0,0.2-0.1,0.3c0,0.1-0.1,0.2-0.1,0.2c0,0.1-0.1,0.1-0.1,0.2c0,0.1-0.1,0.1-0.1,0.2
	c0,0,0,0.1-0.1,0.1c0,0.1-0.1,0.2-0.2,0.2c-0.1,0.1-0.2,0.1-0.3,0.1c0,0-0.1,0-0.1,0c0,0,0,0,0,0s0,0.1,0,0.1c0,0,0,0,0.1,0
	c0.2,0,0.3-0.1,0.4-0.2c0.1-0.1,0.1-0.1,0.2-0.2c0.1-0.2,0.2-0.3,0.3-0.5c0-0.1,0.1-0.1,0.1-0.2c0-0.1,0.1-0.1,0.1-0.2
	c0-0.1,0-0.3,0-0.4c0-0.2-0.1-0.3-0.2-0.4c-0.1-0.1-0.2-0.2-0.3-0.2c-0.1,0-0.2-0.1-0.3-0.1c-0.1,0-0.2,0-0.4,0.1
	c-0.1,0.1-0.2,0.1-0.2,0.2c0,0.1-0.1,0.2-0.1,0.3c0,0.1,0,0.2,0.1,0.3c0,0.1,0.1,0.1,0.1,0.2c0,0,0,0.1,0,0.1
	C29.8,15.4,29.8,15.4,29.9,15.5C29.8,15.5,29.8,15.5,29.9,15.5C29.9,15.5,29.9,15.5,29.9,15.5C29.9,15.5,29.9,15.5,29.9,15.5z"/>
<path class="st6" d="M30.2,15.8c0,0-0.1,0-0.1-0.1C30.1,15.8,30.1,15.8,30.2,15.8C30.2,15.9,30.2,15.9,30.2,15.8L30.2,15.8z"/>
<path class="st2" d="M22.3,18.1c-0.3,0-0.5,0-0.8-0.1l-0.1,0v-1.6h0.2v1.5c0.4,0.1,0.8,0.1,1.2,0l0.1,0.1
	C22.7,18.1,22.5,18.1,22.3,18.1z"/>
<path class="st1" d="M15.8,10.5c1.9-0.2,3.9-0.3,5.8-0.2c2.3,0.1,4.7,0.3,6.9,0.8c-0.1-0.5-0.3-1.1-0.6-1.5c-1-1.1-2.6-0.4-6.5-0.5
	c-2.8-0.1-4.4-0.5-5.3,0.6C16.1,9.9,15.9,10.2,15.8,10.5z"/>
<polygon class="st3" points="16.4,1.2 18.7,0.1 18.7,0.3 19.4,9.6 17.5,9.6 "/>
<path class="st3" d="M16.4,1.2l0.4,2.3c0.2,1.2,0.4,2.4,0.5,3.6c0.1,0.7,0.2,1.5,0.3,2.2c0,0.2,0,0.3-0.3,0.3h-4.8c0-1,0-1.9,0-2.9
	c0.3-2.3,1.6-4.3,3.6-5.4C16.3,1.2,16.4,1.2,16.4,1.2z"/>
<path class="st3" d="M31.1,9.6c-1.6,0-3.3,0-4.9,0C26,9.6,26,9.5,26,9.3c0.1-0.9,0.3-1.8,0.4-2.7c0.2-1.2,0.4-2.4,0.5-3.6l0.3-1.9
	c2,1.1,3.4,3.1,3.8,5.3c0,0.2,0.1,0.5,0.1,0.7C31.1,8,31.1,8.8,31.1,9.6z"/>
<path class="st7" d="M31.2,9.5c0.5-2.2,0-4.6-1.5-6.4c-0.7-0.8-1.4-1.4-2.3-1.9c1.4,1.3,2.3,3,2.7,4.9c0.2,1.1,0.2,2.3-0.1,3.5
	L31.2,9.5L31.2,9.5z"/>
<polygon class="st3" points="27.2,1.2 24.9,0.1 24,9.6 26.4,9.6 "/>
<polygon class="st3" points="24.4,9.6 25.3,0.3 24.8,0.1 24.8,0.3 24,9.6 "/>
<path class="st7" d="M12.6,9.4c-0.5-2.2,0-4.6,1.5-6.4c0.7-0.8,1.4-1.4,2.3-1.9c-1.4,1.3-2.3,3-2.7,4.9c-0.2,1.1-0.2,2.3,0.1,3.5
	L12.6,9.4L12.6,9.4z"/>
<path class="st8" d="M34.7,2.6"/>
<path class="st7" d="M31.8,9.5C28.5,9.7,25,9.8,21.4,9.8c-3.4,0-6.6-0.1-9.7-0.3l0.5-1.4c3.1-0.8,6.4-1.3,9.7-1.3
	c3.3,0,6.5,0.4,9.7,1.3L31.8,9.5z"/>
<path class="st9" d="M19.2,6.6c0.8-0.1,1.6-0.1,2.4-0.1c0.9,0,1.8,0,2.7,0.1l0,0.4h-5.1V6.6z"/>
<path class="st3" d="M31.8,9.5c-3.4,0.4-6.7,0.6-10.1,0.6c-3.3,0-6.7-0.2-10-0.5L11.9,9l19.8-0.1L31.8,9.5z"/>
<path class="st10" d="M15.4,26.6"/>
<path class="st11" d="M15.7,26.4l7.3,8.5l6.4-8.4c-2.1,0.9-4.3,1.4-6.6,1.4C20.3,27.9,17.9,27.4,15.7,26.4z"/>
<polygon class="st7" points="15.7,26.4 21,32.7 17.9,35.9 13.4,27.6 "/>
<polygon class="st7" points="29.2,26.7 24.7,32.6 27.2,35.9 31.3,27.8 29.3,26.5 "/>
<path class="st3" d="M18.7,0.1c2-0.1,4.1-0.1,6.1,0C25.3,0.3,24.3,7,24.3,7h-5.1C19.2,7,18.5,0.1,18.7,0.1z"/>
<path class="st3" d="M7,30.8V41H0.2c0.2-2.4,1-4.6,2.4-6.5C3.8,32.9,5.3,31.6,7,30.8z"/>
<path class="st3" d="M37.5,30.6V41h6.8c0-1-0.2-2-0.6-2.9c-0.6-1.4-1.4-2.7-2.5-3.8C40.1,33,38.9,31.7,37.5,30.6z"/>
<path class="st12" d="M20.4,31.8"/>
<path class="st13" d="M4.7,31.3l4,4.8l-0.3,2.8c0.1,1.2,0.9,2.1,2.1,2.3l2.5,0.2c0,0,0.7-0.1,0.3-0.8l-1.6-2c0,0-0.2-2,1.5-1.2
	l1.6,1.8c0.2,0.2,0.5,0.2,0.7,0c0.1-0.1,0.1-0.1,0.1-0.2l0.2-2.5c-0.1-1.2-1-2.2-2.2-2.4l-2.7-0.2l-3.9-4.9l0.3-2.8
	c-0.1-1.2-0.9-2.1-2-2.4l-2.5-0.2c-0.3,0.1-0.4,0.4-0.4,0.6c0,0.1,0,0.1,0.1,0.2l1.5,1.8c0.3,0.5,0.2,1.1-0.3,1.5
	c-0.4,0.2-0.9,0.1-1.3-0.2L1,25.8c0,0-0.5-0.4-0.8,0.3L0,28.5c0.1,0.6,0.3,1.1,0.6,1.5c0.4,0.5,0.9,0.8,1.5,1L4.7,31.3z"/>
<path class="st14" d="M3.8,27.9l8.3,9.7c-0.3,0.3-0.4,0.8-0.3,1.2l1.6,2c0.1,0.2,0.1,0.4,0,0.6c-0.1,0.1-0.2,0.2-0.4,0.2l-2.5-0.2
	c-0.6-0.1-1.1-0.4-1.4-0.8c-0.4-0.4-0.6-1-0.6-1.5l0.3-2.8l-4-4.8L2.1,31c-0.5-0.2-1-0.5-1.3-1c-0.4-0.4-0.6-1-0.7-1.5l0.2-2.4
	c0-0.2,0.2-0.4,0.4-0.4c0.1,0,0.3,0,0.4,0.1l1.5,1.8C2.7,27.8,2.9,28,3.1,28C3.3,28,3.6,28,3.8,27.9z"/>
<path class="st15" d="M45.9,31.7c0.2,0.3,0.2,0.8,0,1.1c-0.2,0.2-0.3,0.5-0.5,0.7c-0.3,0.4-0.8,0.5-1.2,0.2c-0.4-0.2-0.7-0.4-1-0.6
	c-0.3-0.1-0.5-0.2-0.7-0.4c-0.3-0.2-0.7-0.4-1-0.6c-0.4-0.3-0.9-0.2-1.3,0.2c-0.2,0.3-0.5,0.6-0.7,0.9c-0.1,0.2-0.3,0.4-0.4,0.6
	c-0.7,0.9-1.4,1.8-2.1,2.7c0,0.1-0.1,0.1-0.1,0.1c-0.6,0.7-1.1,1.5-1.7,2.2c-0.4,0.5-0.7,1-1.1,1.4c-0.8,0.9-2.2,1-3.1,0.2
	c-0.3-0.2-0.4-0.5-0.6-0.8c0-0.1,0-0.2-0.1-0.2l0-0.1c0-0.1,0-0.3-0.1-0.4l0-0.1c0.1-0.1,0-0.2,0-0.2c0.1-0.1,0.1,0,0.1,0
	c0.1,0.2,0.4,0.2,0.5,0.1c0.1,0,0.1-0.1,0.1-0.1c0.6-0.8,1.1-1.5,1.7-2.3l3.9-5.2c0-0.1,0.1-0.1,0.1-0.2c0.1-0.1,0.1-0.3,0.1-0.4
	c-0.1-0.2-0.3-0.3-0.5-0.3c-0.1,0-0.2,0-0.2-0.1c0.1-0.2,0.3-0.4,0.4-0.5c0.3-0.4,0.3-0.9,0-1.3c-0.1-0.1-0.2-0.2-0.3-0.4
	c-0.3-0.4-0.4-1-0.1-1.4c0.1,0,0.1,0.1,0.1,0.1c0.1,0.2,0.3,0.3,0.5,0.2c0.1,0,0.1-0.1,0.2-0.1c0.2-0.2,0.4-0.3,0.6-0.3
	c0.2,0,0.5,0,0.7,0.2c0.2,0.1,0.3,0.2,0.5,0.3l6.4,4.8c0.1,0,0.1,0.1,0.2,0.1c0.1,0.1,0.3,0.1,0.4-0.1c0,0,0,0,0-0.1
	C45.8,31.8,45.8,31.7,45.9,31.7z"/>
<path class="st16" d="M42,19.6c0.4,0.1,0.8,0.3,1.1,0.6c1.4,1,2.8,2.1,4.1,3.1c0.1,0.1,0.2,0.2,0.3,0.3c0.1,0.2,0,0.4-0.1,0.5
	c-0.1,0.1-0.4,0.1-0.5,0c-0.3-0.2-0.5-0.4-0.8-0.6c-1.1-0.8-2.1-1.6-3.2-2.4c-0.6-0.5-1.4-0.4-1.9,0.2c0,0,0,0,0,0
	c-0.1,0.2-0.4,0.3-0.6,0.2c0,0-0.1,0-0.1-0.1c-0.1-0.1,0,0-0.1,0c-0.1-0.3-0.1-0.7,0.1-0.9c0.2-0.4,0.5-0.7,0.9-0.9L42,19.6z"/>
<path class="st17" d="M30.2,39c0.1,0.1,0.1,0.3,0.1,0.4L30.2,39z"/>
<path class="st18" d="M40.4,21.6l0-0.2c0.1,0.1,0.3,0.2,0.4,0.2c0.1,0,0.2-0.1,0.3-0.2c0.5-0.6,1.3-0.7,1.9-0.3c0,0,0,0,0,0
	c1,0.8,2,1.5,3,2.3c0.3,0.2,0.6,0.4,0.9,0.6c0.2,0.1,0.3,0.2,0.5,0.1c0.2-0.1,0.3-0.3,0.2-0.5c0.4,0.4,0.5,1.1,0.2,1.6
	c0,0.1-0.1,0.1-0.1,0.2c-1.2,1.6-2.4,3.2-3.6,4.8c-0.1,0-0.1,0-0.2-0.1c-0.3-0.3-0.7-0.5-1-0.8c-0.1,0-0.1-0.1-0.1-0.2
	c0.4-0.1,0.5-0.4,0.7-0.6l1.2-1.6c0.1-0.1,0.1-0.2,0.2-0.2c0.1-0.1,0.1-0.3,0-0.4c-0.1-0.1-0.3-0.2-0.4-0.2c-0.1,0-0.1,0.1-0.2,0
	c0.1-0.2,0.3-0.4,0.4-0.5c0.1-0.1,0.1-0.4,0-0.5c0,0,0,0-0.1,0c-0.2-0.1-0.3-0.2-0.5-0.3c-0.3-0.2-0.4-0.4-0.6-0.7
	c-0.1-0.2-0.3-0.4-0.6-0.4c-0.5,0-0.9-0.3-1-0.8c-0.1-0.3-0.4-0.4-0.6-0.5C40.9,22.4,40.5,22,40.4,21.6z"/>
<path class="st19" d="M36.2,30.2c0,0,0.1,0,0.1,0c0.2,0,0.4,0.1,0.5,0.3c0.1,0.2,0.1,0.4-0.1,0.5c-1.9,2.5-3.8,5.1-5.7,7.6
	c-0.2,0.3-0.5,0.3-0.8,0c0,0-0.1,0-0.1,0c0-0.4,0.2-0.8,0.5-1.2c1.6-2.2,3.3-4.4,4.9-6.5C35.8,30.7,36,30.5,36.2,30.2z"/>
<path class="st19" d="M42.8,29.3c0.4,0.3,0.9,0.7,1.3,1c0.5,0.4,1,0.8,1.5,1.2c0.1,0.1,0.2,0.2,0.3,0.3c-0.1,0-0.1,0.1-0.1,0.1
	c0,0.2-0.2,0.3-0.4,0.3c-0.1,0-0.1,0-0.1-0.1c0,0-0.1-0.1-0.1-0.1c-2.3-1.7-4.5-3.4-6.8-5.1c-0.4-0.3-0.9-0.2-1.3,0.1
	c-0.3,0.3-0.6,0.2-0.8-0.2c0,0,0,0,0,0c0.1-0.2,0.1-0.4,0.2-0.5c0.1-0.4,0.5-0.7,0.9-0.7c0.1,0,0.1,0,0.2,0c0.2,0.1,0.4,0.2,0.6,0.3
	l4.1,3.1C42.4,29,42.6,29.1,42.8,29.3z"/>
<path class="st20" d="M42.2,28.9c-0.1,0-0.1-0.1-0.2-0.1c-1.3-1-2.6-2-3.9-3c-0.2-0.1-0.3-0.2-0.5-0.3c0-0.1,0.1-0.2,0.2-0.3
	c0.5-0.5,1.2-0.4,1.7,0c0.1,0.1,0.2,0.2,0.2,0.4c0.1,0.3,0.3,0.5,0.6,0.5c0.4,0,0.8,0.3,1,0.7c0.1,0.2,0.3,0.4,0.6,0.5
	c0.2,0.1,0.4-0.1,0.5-0.3c0-0.1,0-0.1,0-0.2c0-0.1,0-0.1,0-0.2c0.4,0.2,0.7,0.7,0.6,1.2c0,0,0,0.1,0,0.2c0,0.1-0.1,0.2-0.2,0.3
	c-0.1,0.1-0.2,0.3-0.3,0.4C42.4,28.8,42.3,28.9,42.2,28.9z"/>
<path class="st21" d="M42.3,26.6c0.1,0.3,0,0.7-0.3,0.7c-0.3,0-0.6-0.1-0.7-0.4c-0.1-0.2-0.2-0.4-0.4-0.6c-0.2-0.2-0.4-0.3-0.7-0.3
	c-0.3,0-0.5-0.2-0.6-0.5c-0.2-0.5-0.6-0.8-1.1-0.7c-0.4,0-0.8,0.2-1,0.6l-0.2,0c-0.1-0.5,0-1,0.5-1.2c0.5-0.4,1.3-0.2,1.6,0.3
	c0,0.1,0.1,0.1,0.1,0.2c0.1,0.3,0.3,0.5,0.6,0.5c0.4,0,0.8,0.3,1,0.8c0.1,0.2,0.3,0.4,0.5,0.4C42,26.4,42.2,26.5,42.3,26.6z"/>
<path class="st16" d="M42.2,28.9c0.2-0.3,0.4-0.6,0.6-0.9c0.4-0.5,0.8-1.1,1.2-1.6c0.1-0.1,0.1-0.2,0.2-0.3c0.1,0,0.3-0.1,0.4,0
	c0.2,0.1,0.3,0.4,0.2,0.6c0,0,0,0.1-0.1,0.1c-0.5,0.7-1.1,1.5-1.7,2.2c-0.1,0.1-0.3,0.2-0.5,0.2C42.6,29.1,42.4,29,42.2,28.9z"/>
<path class="st20" d="M42.9,33.5c-0.3,0.4-0.6,0.8-0.9,1.2c-0.3,0.5-0.9,0.6-1.4,0.3c-0.1,0-0.2-0.1-0.3-0.2
	c-0.2-0.2-0.4-0.3-0.6-0.5c-0.1,0-0.1-0.1-0.1-0.2c0.4-0.4,0.8-0.8,1.1-1.3c0.1-0.2,0.4-0.2,0.6-0.1c0.4,0.2,0.7,0.4,1.1,0.6
	C42.5,33.5,42.7,33.5,42.9,33.5C42.9,33.5,42.9,33.5,42.9,33.5z"/>
<path class="st22" d="M39.5,34.1c0.3,0.2,0.6,0.5,0.9,0.7c0.1,0,0.1,0.1,0.2,0.1c-0.5,0.7-1,1.3-1.5,2c-0.3,0.5-0.9,0.6-1.3,0.4
	c-0.1,0-0.1-0.1-0.2-0.1c-0.1-0.1-0.2-0.2-0.3-0.3c0.4-0.1,0.5-0.4,0.8-0.7c0.4-0.5,0.7-1,1.1-1.5C39.3,34.6,39.4,34.3,39.5,34.1
	C39.4,34.1,39.4,34.1,39.5,34.1z"/>
<path class="st21" d="M39.5,34.1L39.5,34.1c-0.2-0.1-0.4-0.2-0.5-0.3c0.3-0.5,0.7-0.9,1-1.4c0.3-0.4,0.9-0.5,1.4-0.2
	c0.6,0.3,1.1,0.6,1.7,1l-0.3,0.4c-0.3,0.1-0.5-0.1-0.7-0.2c-0.3-0.2-0.6-0.4-1-0.6c-0.2-0.1-0.4-0.1-0.5,0.1c0,0,0,0,0,0
	c-0.2,0.2-0.3,0.4-0.5,0.6C39.9,33.8,39.7,34,39.5,34.1z"/>
<path class="st23" d="M39,33.8l0.4,0.3c0,0.2,0,0.4-0.1,0.5c-0.5,0.7-1,1.4-1.5,2c-0.1,0.2-0.3,0.3-0.5,0.3l-0.4-0.3
	c0,0,0-0.1,0.1-0.1L39,33.8C39,33.8,39,33.8,39,33.8z"/>
<path class="st24" d="M34.5,37c0,0.2,0,0.4-0.1,0.6c-0.3,0.4-0.6,0.9-1,1.3c-0.2,0.3-0.7,0.4-1,0.2c-0.3-0.2-0.4-0.7-0.2-1
	c0,0,0,0,0,0c0.3-0.5,0.7-0.9,1-1.4c0.2-0.2,0.5-0.3,0.8-0.2C34.2,36.5,34.4,36.7,34.5,37z"/>
<path class="st2" d="M18.1,14C18.1,14,18,14,18.1,14C18,13.9,18,13.8,18,13.8c0.6-0.6,1.6-0.7,2.3-0.3c0.1,0,0.1,0.1,0,0.2
	c0,0,0,0,0,0c0,0.1-0.1,0.1-0.2,0c0,0,0,0,0,0C19.6,13.3,18.7,13.4,18.1,14C18.2,14,18.1,14,18.1,14z"/>
<path class="st2" d="M26.4,14C26.4,14,26.4,14,26.4,14c-0.6-0.6-1.4-0.7-2.1-0.3c-0.1,0-0.1,0-0.2,0c0-0.1,0-0.1,0-0.2c0,0,0,0,0,0
	c0.7-0.5,1.7-0.4,2.3,0.3C26.6,13.8,26.6,13.9,26.4,14C26.5,14,26.5,14,26.4,14z"/>
</svg>
